{
.appVersion = "3124";
DisplayStrings = (
"AnotoliaBCDEFGHIJKLMNOPQRSTUVWXYZæabcdefghijklmnopqrstuvwxyz0123456789/fraction .,:;/ellipsis !¡?¿·/bullet *#///backslash (){}[]-/endash/emdash _/quotesinglbase/quotedblbase/quotedblleft/quotedblright/quoteleft/quoteright «»/guilsinglleft/guilsinglright \"'/space ¢¤$/euro £¥+/minus ×÷=/notequal ></greaterequal/lessequal ±/approxequal ~¬^/emptyset/infinity/integral/product/summation/radical/partialdiff %/perthousand/upArrow/northEastArrow/rightArrow/southEastArrow/downArrow/southWestArrow/leftArrow/northWestArrow/leftRightArrow/upDownArrow/lozenge @&¶§©®/trademark °|¦/dagger/daggerdbl ´/breve/caron ¸/circumflex ¨/dotaccent `/hungarumlaut ¯/ogonek/ring/tilde",

glyphs = (
{
glyphname = A;
lastChange = "2022-05-07 19:23:39 +0000";
layers = (
{
layerId = "99C57DA8-5467-4805-A641-AC10645D6708";
paths = (
{
closed = 1;
nodes = (
"444 744 LINE",
"390 744 OFFCURVE",
"336 744 OFFCURVE",
"336 876 CURVE",
"240 738 LINE",
"378 738 OFFCURVE",
"384 738 OFFCURVE",
"384 648 CURVE"
);
},
{
closed = 1;
nodes = (
"60 0 LINE SMOOTH",
"90 0 OFFCURVE",
"96 6 OFFCURVE",
"96 36 CURVE SMOOTH",
"96 480 LINE",
"36 480 LINE SMOOTH",
"6 480 OFFCURVE",
"0 474 OFFCURVE",
"0 444 CURVE SMOOTH",
"0 36 LINE SMOOTH",
"0 6 OFFCURVE",
"6 0 OFFCURVE",
"36 0 CURVE SMOOTH"
);
},
{
closed = 1;
nodes = (
"96 210 OFFCURVE",
"102 216 OFFCURVE",
"144 216 CURVE",
"144 288 LINE",
"144 258 OFFCURVE",
"138 252 OFFCURVE",
"120 252 CURVE SMOOTH",
"102 252 OFFCURVE",
"96 258 OFFCURVE",
"96 288 CURVE",
"96 144 LINE"
);
},
{
closed = 1;
nodes = (
"432 216 LINE",
"432 288 LINE SMOOTH",
"432 306 OFFCURVE",
"426 312 OFFCURVE",
"396 312 CURVE SMOOTH",
"180 312 LINE SMOOTH",
"150 312 OFFCURVE",
"144 306 OFFCURVE",
"144 288 CURVE SMOOTH",
"144 216 LINE"
);
},
{
closed = 1;
nodes = (
"96 474 OFFCURVE",
"102 474 OFFCURVE",
"156 474 CURVE",
"96 534 LINE",
"96 480 OFFCURVE",
"90 480 OFFCURVE",
"36 480 CURVE",
"96 384 LINE"
);
},
{
closed = 1;
nodes = (
"480 288 LINE",
"480 258 OFFCURVE",
"474 252 OFFCURVE",
"456 252 CURVE SMOOTH",
"438 252 OFFCURVE",
"432 258 OFFCURVE",
"432 288 CURVE",
"432 216 LINE",
"474 216 OFFCURVE",
"480 210 OFFCURVE",
"480 144 CURVE"
);
},
{
closed = 1;
nodes = (
"156 474 LINE SMOOTH",
"186 474 OFFCURVE",
"192 480 OFFCURVE",
"192 510 CURVE SMOOTH",
"192 744 LINE",
"132 744 LINE SMOOTH",
"102 744 OFFCURVE",
"96 738 OFFCURVE",
"96 708 CURVE SMOOTH",
"96 510 LINE SMOOTH",
"96 480 OFFCURVE",
"102 474 OFFCURVE",
"132 474 CURVE SMOOTH"
);
},
{
closed = 1;
nodes = (
"540 0 LINE SMOOTH",
"570 0 OFFCURVE",
"576 6 OFFCURVE",
"576 36 CURVE SMOOTH",
"576 444 LINE SMOOTH",
"576 474 OFFCURVE",
"570 480 OFFCURVE",
"540 480 CURVE SMOOTH",
"480 480 LINE",
"480 36 LINE SMOOTH",
"480 6 OFFCURVE",
"486 0 OFFCURVE",
"516 0 CURVE SMOOTH"
);
},
{
closed = 1;
nodes = (
"540 480 LINE",
"486 480 OFFCURVE",
"480 480 OFFCURVE",
"480 534 CURVE",
"420 474 LINE",
"474 474 OFFCURVE",
"480 474 OFFCURVE",
"480 384 CURVE"
);
},
{
closed = 1;
nodes = (
"192 738 OFFCURVE",
"198 738 OFFCURVE",
"336 738 CURVE",
"240 876 LINE",
"240 744 OFFCURVE",
"186 744 OFFCURVE",
"132 744 CURVE",
"192 648 LINE"
);
},
{
closed = 1;
nodes = (
"444 474 LINE SMOOTH",
"474 474 OFFCURVE",
"480 480 OFFCURVE",
"480 510 CURVE SMOOTH",
"480 708 LINE SMOOTH",
"480 738 OFFCURVE",
"474 744 OFFCURVE",
"444 744 CURVE SMOOTH",
"384 744 LINE",
"384 510 LINE SMOOTH",
"384 480 OFFCURVE",
"390 474 OFFCURVE",
"420 474 CURVE SMOOTH"
);
},
{
closed = 1;
nodes = (
"336 738 LINE",
"336 876 LINE SMOOTH",
"336 906 OFFCURVE",
"330 912 OFFCURVE",
"300 912 CURVE SMOOTH",
"276 912 LINE SMOOTH",
"246 912 OFFCURVE",
"240 906 OFFCURVE",
"240 876 CURVE SMOOTH",
"240 738 LINE"
);
}
);
width = 576;
}
);
unicode = 0041;
},
{
glyphname = H;
lastChange = "2020-02-10 16:27:10 +0000";
layers = (
{
layerId = "99C57DA8-5467-4805-A641-AC10645D6708";
paths = (
{
closed = 1;
nodes = (
"84 0 LINE SMOOTH",
"114 0 OFFCURVE",
"120 6 OFFCURVE",
"120 36 CURVE SMOOTH",
"120 288 LINE SMOOTH",
"120 378 OFFCURVE",
"174 432 OFFCURVE",
"264 432 CURVE SMOOTH",
"444 432 LINE SMOOTH",
"474 432 OFFCURVE",
"480 438 OFFCURVE",
"480 468 CURVE SMOOTH",
"480 528 OFFCURVE",
"480 540 OFFCURVE",
"504 540 CURVE SMOOTH",
"528 540 OFFCURVE",
"528 528 OFFCURVE",
"528 468 CURVE SMOOTH",
"528 36 LINE SMOOTH",
"528 6 OFFCURVE",
"534 0 OFFCURVE",
"564 0 CURVE SMOOTH",
"582 0 LINE SMOOTH",
"618 0 OFFCURVE",
"624 6 OFFCURVE",
"624 36 CURVE SMOOTH",
"624 876 LINE SMOOTH",
"624 906 OFFCURVE",
"618 912 OFFCURVE",
"588 912 CURVE SMOOTH",
"564 912 LINE SMOOTH",
"534 912 OFFCURVE",
"528 906 OFFCURVE",
"528 876 CURVE SMOOTH",
"528 672 LINE SMOOTH",
"528 582 OFFCURVE",
"474 528 OFFCURVE",
"384 528 CURVE SMOOTH",
"204 528 LINE SMOOTH",
"174 528 OFFCURVE",
"168 522 OFFCURVE",
"168 492 CURVE SMOOTH",
"168 432 OFFCURVE",
"168 420 OFFCURVE",
"144 420 CURVE SMOOTH",
"120 420 OFFCURVE",
"120 432 OFFCURVE",
"120 492 CURVE SMOOTH",
"120 876 LINE SMOOTH",
"120 906 OFFCURVE",
"114 912 OFFCURVE",
"84 912 CURVE SMOOTH",
"66 912 LINE SMOOTH",
"30 912 OFFCURVE",
"24 906 OFFCURVE",
"24 876 CURVE SMOOTH",
"24 36 LINE SMOOTH",
"24 6 OFFCURVE",
"30 0 OFFCURVE",
"60 0 CURVE SMOOTH"
);
}
);
width = 648;
}
);
unicode = 0048;
},
{
glyphname = I;
lastChange = "2020-02-10 16:27:10 +0000";
layers = (
{
layerId = "99C57DA8-5467-4805-A641-AC10645D6708";
paths = (
{
closed = 1;
nodes = (
"84 0 LINE SMOOTH",
"114 0 OFFCURVE",
"120 6 OFFCURVE",
"120 36 CURVE SMOOTH",
"120 876 LINE SMOOTH",
"120 906 OFFCURVE",
"114 912 OFFCURVE",
"84 912 CURVE SMOOTH",
"66 912 LINE SMOOTH",
"30 912 OFFCURVE",
"24 906 OFFCURVE",
"24 876 CURVE SMOOTH",
"24 36 LINE SMOOTH",
"24 6 OFFCURVE",
"30 0 OFFCURVE",
"60 0 CURVE SMOOTH"
);
}
);
width = 144;
}
);
unicode = 0049;
},
{
glyphname = O;
lastChange = "2020-02-10 16:27:10 +0000";
layers = (
{
layerId = "99C57DA8-5467-4805-A641-AC10645D6708";
paths = (
{
closed = 1;
nodes = (
"588 144 LINE SMOOTH",
"618 144 OFFCURVE",
"624 150 OFFCURVE",
"624 180 CURVE SMOOTH",
"624 732 LINE SMOOTH",
"624 762 OFFCURVE",
"618 768 OFFCURVE",
"588 768 CURVE SMOOTH",
"528 768 LINE",
"528 144 LINE"
);
},
{
closed = 1;
nodes = (
"264 96 LINE",
"174 96 OFFCURVE",
"120 150 OFFCURVE",
"120 240 CURVE",
"60 144 LINE",
"114 144 OFFCURVE",
"168 90 OFFCURVE",
"168 36 CURVE"
);
},
{
closed = 1;
nodes = (
"444 0 LINE SMOOTH",
"474 0 OFFCURVE",
"480 6 OFFCURVE",
"480 36 CURVE SMOOTH",
"480 96 LINE",
"168 96 LINE",
"168 36 LINE SMOOTH",
"168 6 OFFCURVE",
"174 0 OFFCURVE",
"204 0 CURVE SMOOTH"
);
},
{
closed = 1;
nodes = (
"120 144 LINE",
"120 768 LINE",
"60 768 LINE SMOOTH",
"30 768 OFFCURVE",
"24 762 OFFCURVE",
"24 732 CURVE SMOOTH",
"24 180 LINE SMOOTH",
"24 150 OFFCURVE",
"30 144 OFFCURVE",
"60 144 CURVE SMOOTH"
);
},
{
closed = 1;
nodes = (
"480 90 OFFCURVE",
"534 144 OFFCURVE",
"588 144 CURVE",
"528 240 LINE",
"528 150 OFFCURVE",
"474 96 OFFCURVE",
"384 96 CURVE",
"480 36 LINE"
);
},
{
closed = 1;
nodes = (
"120 762 OFFCURVE",
"174 816 OFFCURVE",
"264 816 CURVE",
"168 876 LINE",
"168 822 OFFCURVE",
"114 768 OFFCURVE",
"60 768 CURVE",
"120 672 LINE"
);
},
{
closed = 1;
nodes = (
"480 816 LINE",
"480 876 LINE SMOOTH",
"480 906 OFFCURVE",
"474 912 OFFCURVE",
"444 912 CURVE SMOOTH",
"204 912 LINE SMOOTH",
"174 912 OFFCURVE",
"168 906 OFFCURVE",
"168 876 CURVE SMOOTH",
"168 816 LINE"
);
},
{
closed = 1;
nodes = (
"588 768 LINE",
"534 768 OFFCURVE",
"480 822 OFFCURVE",
"480 876 CURVE",
"384 816 LINE",
"474 816 OFFCURVE",
"528 762 OFFCURVE",
"528 672 CURVE"
);
}
);
width = 648;
}
);
unicode = 004F;
},
{
glyphname = a;
lastChange = "2022-05-07 22:07:24 +0000";
layers = (
{
background = {
paths = (
{
closed = 1;
nodes = (
"648 864 LINE",
"648 960 LINE",
"552 960 LINE",
"552 864 LINE"
);
},
{
closed = 1;
nodes = (
"216 -288 LINE",
"216 -192 LINE",
"120 -192 LINE",
"120 -288 LINE"
);
},
{
closed = 1;
nodes = (
"216 -144 LINE",
"216 -48 LINE",
"120 -48 LINE",
"120 -144 LINE"
);
},
{
closed = 1;
nodes = (
"360 -288 LINE",
"360 -192 LINE",
"264 -192 LINE",
"264 -288 LINE"
);
},
{
closed = 1;
nodes = (
"216 0 LINE",
"216 96 LINE",
"120 96 LINE",
"120 0 LINE"
);
},
{
closed = 1;
nodes = (
"360 -144 LINE",
"360 -48 LINE",
"264 -48 LINE",
"264 -144 LINE"
);
},
{
closed = 1;
nodes = (
"504 -288 LINE",
"504 -192 LINE",
"408 -192 LINE",
"408 -288 LINE"
);
},
{
closed = 1;
nodes = (
"216 144 LINE",
"216 240 LINE",
"120 240 LINE",
"120 144 LINE"
);
},
{
closed = 1;
nodes = (
"360 0 LINE",
"360 96 LINE",
"264 96 LINE",
"264 0 LINE"
);
},
{
closed = 1;
nodes = (
"504 -144 LINE",
"504 -48 LINE",
"408 -48 LINE",
"408 -144 LINE"
);
},
{
closed = 1;
nodes = (
"648 -288 LINE",
"648 -192 LINE",
"552 -192 LINE",
"552 -288 LINE"
);
},
{
closed = 1;
nodes = (
"216 288 LINE",
"216 384 LINE",
"120 384 LINE",
"120 288 LINE"
);
},
{
closed = 1;
nodes = (
"360 144 LINE",
"360 240 LINE",
"264 240 LINE",
"264 144 LINE"
);
},
{
closed = 1;
nodes = (
"504 0 LINE",
"504 96 LINE",
"408 96 LINE",
"408 0 LINE"
);
},
{
closed = 1;
nodes = (
"648 -144 LINE",
"648 -48 LINE",
"552 -48 LINE",
"552 -144 LINE"
);
},
{
closed = 1;
nodes = (
"216 432 LINE",
"216 528 LINE",
"120 528 LINE",
"120 432 LINE"
);
},
{
closed = 1;
nodes = (
"360 288 LINE",
"360 384 LINE",
"264 384 LINE",
"264 288 LINE"
);
},
{
closed = 1;
nodes = (
"504 144 LINE",
"504 240 LINE",
"408 240 LINE",
"408 144 LINE"
);
},
{
closed = 1;
nodes = (
"648 0 LINE",
"648 96 LINE",
"552 96 LINE",
"552 0 LINE"
);
},
{
closed = 1;
nodes = (
"360 432 LINE",
"360 528 LINE",
"264 528 LINE",
"264 432 LINE"
);
},
{
closed = 1;
nodes = (
"504 288 LINE",
"504 384 LINE",
"408 384 LINE",
"408 288 LINE"
);
},
{
closed = 1;
nodes = (
"648 144 LINE",
"648 240 LINE",
"552 240 LINE",
"552 144 LINE"
);
},
{
closed = 1;
nodes = (
"216 576 LINE",
"216 672 LINE",
"120 672 LINE",
"120 576 LINE"
);
},
{
closed = 1;
nodes = (
"504 432 LINE",
"504 528 LINE",
"408 528 LINE",
"408 432 LINE"
);
},
{
closed = 1;
nodes = (
"648 288 LINE",
"648 384 LINE",
"552 384 LINE",
"552 288 LINE"
);
},
{
closed = 1;
nodes = (
"216 720 LINE",
"216 816 LINE",
"120 816 LINE",
"120 720 LINE"
);
},
{
closed = 1;
nodes = (
"360 576 LINE",
"360 672 LINE",
"264 672 LINE",
"264 576 LINE"
);
},
{
closed = 1;
nodes = (
"648 432 LINE",
"648 528 LINE",
"552 528 LINE",
"552 432 LINE"
);
},
{
closed = 1;
nodes = (
"216 864 LINE",
"216 960 LINE",
"120 960 LINE",
"120 864 LINE"
);
},
{
closed = 1;
nodes = (
"360 720 LINE",
"360 816 LINE",
"264 816 LINE",
"264 720 LINE"
);
},
{
closed = 1;
nodes = (
"504 576 LINE",
"504 672 LINE",
"408 672 LINE",
"408 576 LINE"
);
},
{
closed = 1;
nodes = (
"360 864 LINE",
"360 960 LINE",
"264 960 LINE",
"264 864 LINE"
);
},
{
closed = 1;
nodes = (
"504 720 LINE",
"504 816 LINE",
"408 816 LINE",
"408 720 LINE"
);
},
{
closed = 1;
nodes = (
"648 576 LINE",
"648 672 LINE",
"552 672 LINE",
"552 576 LINE"
);
},
{
closed = 1;
nodes = (
"504 864 LINE",
"504 960 LINE",
"408 960 LINE",
"408 864 LINE"
);
},
{
closed = 1;
nodes = (
"648 720 LINE",
"648 816 LINE",
"552 816 LINE",
"552 720 LINE"
);
},
{
closed = 1;
nodes = (
"792 864 LINE",
"792 960 LINE",
"696 960 LINE",
"696 864 LINE"
);
},
{
closed = 1;
nodes = (
"792 -288 LINE",
"792 -192 LINE",
"696 -192 LINE",
"696 -288 LINE"
);
},
{
closed = 1;
nodes = (
"792 -144 LINE",
"792 -48 LINE",
"696 -48 LINE",
"696 -144 LINE"
);
},
{
closed = 1;
nodes = (
"792 0 LINE",
"792 96 LINE",
"696 96 LINE",
"696 0 LINE"
);
},
{
closed = 1;
nodes = (
"792 144 LINE",
"792 240 LINE",
"696 240 LINE",
"696 144 LINE"
);
},
{
closed = 1;
nodes = (
"792 288 LINE",
"792 384 LINE",
"696 384 LINE",
"696 288 LINE"
);
},
{
closed = 1;
nodes = (
"792 432 LINE",
"792 528 LINE",
"696 528 LINE",
"696 432 LINE"
);
},
{
closed = 1;
nodes = (
"792 576 LINE",
"792 672 LINE",
"696 672 LINE",
"696 576 LINE"
);
},
{
closed = 1;
nodes = (
"792 720 LINE",
"792 816 LINE",
"696 816 LINE",
"696 720 LINE"
);
},
{
closed = 1;
nodes = (
"72 864 LINE",
"72 960 LINE",
"-24 960 LINE",
"-24 864 LINE"
);
},
{
closed = 1;
nodes = (
"72 -288 LINE",
"72 -192 LINE",
"-24 -192 LINE",
"-24 -288 LINE"
);
},
{
closed = 1;
nodes = (
"72 -144 LINE",
"72 -48 LINE",
"-24 -48 LINE",
"-24 -144 LINE"
);
},
{
closed = 1;
nodes = (
"72 0 LINE",
"72 96 LINE",
"-24 96 LINE",
"-24 0 LINE"
);
},
{
closed = 1;
nodes = (
"72 144 LINE",
"72 240 LINE",
"-24 240 LINE",
"-24 144 LINE"
);
},
{
closed = 1;
nodes = (
"72 288 LINE",
"72 384 LINE",
"-24 384 LINE",
"-24 288 LINE"
);
},
{
closed = 1;
nodes = (
"72 432 LINE",
"72 528 LINE",
"-24 528 LINE",
"-24 432 LINE"
);
},
{
closed = 1;
nodes = (
"72 576 LINE",
"72 672 LINE",
"-24 672 LINE",
"-24 576 LINE"
);
},
{
closed = 1;
nodes = (
"72 720 LINE",
"72 816 LINE",
"-24 816 LINE",
"-24 720 LINE"
);
}
);
};
layerId = "99C57DA8-5467-4805-A641-AC10645D6708";
paths = (
{
closed = 1;
nodes = (
"192 0 LINE SMOOTH",
"210 0 OFFCURVE",
"216 6 OFFCURVE",
"216 24 CURVE SMOOTH",
"216 96 OFFCURVE",
"264 144 OFFCURVE",
"384 144 CURVE SMOOTH",
"504 144 OFFCURVE",
"552 96 OFFCURVE",
"552 24 CURVE SMOOTH",
"552 6 OFFCURVE",
"558 0 OFFCURVE",
"576 0 CURVE SMOOTH",
"624 0 LINE SMOOTH",
"642 0 OFFCURVE",
"648 6 OFFCURVE",
"648 24 CURVE SMOOTH",
"648 72 LINE SMOOTH",
"648 90 OFFCURVE",
"642 96 OFFCURVE",
"624 96 CURVE SMOOTH",
"552 96 OFFCURVE",
"504 120 OFFCURVE",
"504 192 CURVE SMOOTH",
"504 264 OFFCURVE",
"552 288 OFFCURVE",
"600 288 CURVE SMOOTH",
"642 288 OFFCURVE",
"648 294 OFFCURVE",
"648 312 CURVE SMOOTH",
"648 504 LINE SMOOTH",
"648 522 OFFCURVE",
"642 528 OFFCURVE",
"624 528 CURVE SMOOTH",
"552 528 OFFCURVE",
"504 576 OFFCURVE",
"504 648 CURVE SMOOTH",
"504 666 OFFCURVE",
"498 672 OFFCURVE",
"480 672 CURVE SMOOTH",
"288 672 LINE SMOOTH",
"270 672 OFFCURVE",
"264 666 OFFCURVE",
"264 648 CURVE SMOOTH",
"264 576 OFFCURVE",
"216 528 OFFCURVE",
"144 528 CURVE SMOOTH",
"126 528 OFFCURVE",
"120 522 OFFCURVE",
"120 504 CURVE SMOOTH",
"120 360 LINE SMOOTH",
"120 342 OFFCURVE",
"126 336 OFFCURVE",
"144 336 CURVE SMOOTH",
"192 336 LINE SMOOTH",
"210 336 OFFCURVE",
"216 342 OFFCURVE",
"216 361 CURVE SMOOTH",
"216 432 LINE SMOOTH",
"216 528 OFFCURVE",
"264 576 OFFCURVE",
"360 576 CURVE SMOOTH",
"408 576 LINE SMOOTH",
"504 576 OFFCURVE",
"552 528 OFFCURVE",
"552 432 CURVE SMOOTH",
"552 384 LINE SMOOTH",
"552 288 OFFCURVE",
"504 240 OFFCURVE",
"384 240 CURVE SMOOTH",
"270 240 OFFCURVE",
"264 234 OFFCURVE",
"264 216 CURVE SMOOTH",
"264 144 OFFCURVE",
"216 96 OFFCURVE",
"144 96 CURVE SMOOTH",
"126 96 OFFCURVE",
"120 90 OFFCURVE",
"120 72 CURVE SMOOTH",
"120 24 LINE SMOOTH",
"120 6 OFFCURVE",
"126 0 OFFCURVE",
"144 0 CURVE SMOOTH"
);
}
);
width = 768;
}
);
unicode = 0061;
},
{
glyphname = ae;
lastChange = "2022-05-06 15:40:25 +0000";
layers = (
{
layerId = "99C57DA8-5467-4805-A641-AC10645D6708";
paths = (
{
closed = 1;
nodes = (
"228 0 LINE SMOOTH",
"258 0 OFFCURVE",
"264 6 OFFCURVE",
"264 36 CURVE SMOOTH",
"264 90 OFFCURVE",
"318 96 OFFCURVE",
"372 96 CURVE SMOOTH",
"402 96 OFFCURVE",
"408 102 OFFCURVE",
"408 132 CURVE SMOOTH",
"408 156 LINE SMOOTH",
"408 186 OFFCURVE",
"402 192 OFFCURVE",
"372 192 CURVE SMOOTH",
"348 192 LINE SMOOTH",
"318 192 OFFCURVE",
"312 186 OFFCURVE",
"312 144 CURVE SMOOTH",
"312 102 OFFCURVE",
"300 96 OFFCURVE",
"228 96 CURVE SMOOTH",
"204 96 LINE SMOOTH",
"132 96 OFFCURVE",
"120 102 OFFCURVE",
"120 132 CURVE SMOOTH",
"120 204 LINE SMOOTH",
"120 234 OFFCURVE",
"132 240 OFFCURVE",
"204 240 CURVE SMOOTH",
"372 240 LINE SMOOTH",
"402 240 OFFCURVE",
"408 246 OFFCURVE",
"408 276 CURVE SMOOTH",
"408 330 OFFCURVE",
"414 336 OFFCURVE",
"432 336 CURVE SMOOTH",
"450 336 OFFCURVE",
"456 330 OFFCURVE",
"456 276 CURVE SMOOTH",
"456 216 LINE SMOOTH",
"456 186 OFFCURVE",
"462 180 OFFCURVE",
"492 180 CURVE SMOOTH",
"516 180 LINE SMOOTH",
"546 180 OFFCURVE",
"552 186 OFFCURVE",
"552 216 CURVE SMOOTH",
"552 492 LINE SMOOTH",
"552 522 OFFCURVE",
"546 528 OFFCURVE",
"516 528 CURVE SMOOTH",
"462 528 OFFCURVE",
"408 582 OFFCURVE",
"408 636 CURVE SMOOTH",
"408 666 OFFCURVE",
"402 672 OFFCURVE",
"372 672 CURVE SMOOTH",
"204 672 LINE SMOOTH",
"174 672 OFFCURVE",
"168 666 OFFCURVE",
"168 636 CURVE SMOOTH",
"168 582 OFFCURVE",
"114 528 OFFCURVE",
"60 528 CURVE SMOOTH",
"30 528 OFFCURVE",
"24 522 OFFCURVE",
"24 492 CURVE SMOOTH",
"24 468 LINE SMOOTH",
"24 438 OFFCURVE",
"30 432 OFFCURVE",
"60 432 CURVE SMOOTH",
"84 432 LINE SMOOTH",
"114 432 OFFCURVE",
"120 438 OFFCURVE",
"120 480 CURVE SMOOTH",
"120 522 OFFCURVE",
"174 576 OFFCURVE",
"264 576 CURVE SMOOTH",
"312 576 LINE SMOOTH",
"402 576 OFFCURVE",
"456 522 OFFCURVE",
"456 456 CURVE SMOOTH",
"456 390 OFFCURVE",
"402 336 OFFCURVE",
"312 336 CURVE SMOOTH",
"204 336 LINE SMOOTH",
"174 336 OFFCURVE",
"168 330 OFFCURVE",
"168 300 CURVE SMOOTH",
"168 246 OFFCURVE",
"114 240 OFFCURVE",
"60 240 CURVE SMOOTH",
"30 240 OFFCURVE",
"24 234 OFFCURVE",
"24 204 CURVE SMOOTH",
"24 132 LINE SMOOTH",
"24 102 OFFCURVE",
"30 96 OFFCURVE",
"60 96 CURVE SMOOTH",
"114 96 OFFCURVE",
"168 90 OFFCURVE",
"168 36 CURVE SMOOTH",
"168 6 OFFCURVE",
"174 0 OFFCURVE",
"204 0 CURVE SMOOTH"
);
},
{
closed = 1;
nodes = (
"948 0 LINE SMOOTH",
"978 0 OFFCURVE",
"984 6 OFFCURVE",
"984 48 CURVE SMOOTH",
"984 90 OFFCURVE",
"978 96 OFFCURVE",
"948 96 CURVE SMOOTH",
"696 96 LINE SMOOTH",
"606 96 OFFCURVE",
"552 150 OFFCURVE",
"552 240 CURVE SMOOTH",
"552 402 OFFCURVE",
"558 408 OFFCURVE",
"576 408 CURVE SMOOTH",
"594 408 OFFCURVE",
"600 402 OFFCURVE",
"600 324 CURVE SMOOTH",
"600 294 OFFCURVE",
"606 288 OFFCURVE",
"636 288 CURVE SMOOTH",
"804 288 LINE SMOOTH",
"834 288 OFFCURVE",
"840 294 OFFCURVE",
"840 324 CURVE SMOOTH",
"840 378 OFFCURVE",
"894 432 OFFCURVE",
"948 432 CURVE SMOOTH",
"978 432 OFFCURVE",
"984 438 OFFCURVE",
"984 468 CURVE SMOOTH",
"984 492 LINE SMOOTH",
"984 522 OFFCURVE",
"978 528 OFFCURVE",
"948 528 CURVE SMOOTH",
"894 528 OFFCURVE",
"840 582 OFFCURVE",
"840 636 CURVE SMOOTH",
"840 666 OFFCURVE",
"834 672 OFFCURVE",
"804 672 CURVE SMOOTH",
"636 672 LINE SMOOTH",
"606 672 OFFCURVE",
"600 666 OFFCURVE",
"600 636 CURVE SMOOTH",
"600 582 OFFCURVE",
"546 528 OFFCURVE",
"492 528 CURVE SMOOTH",
"462 528 OFFCURVE",
"456 522 OFFCURVE",
"456 492 CURVE SMOOTH",
"456 180 LINE SMOOTH",
"456 150 OFFCURVE",
"462 144 OFFCURVE",
"492 144 CURVE SMOOTH",
"546 144 OFFCURVE",
"600 90 OFFCURVE",
"600 36 CURVE SMOOTH",
"600 6 OFFCURVE",
"606 0 OFFCURVE",
"636 0 CURVE SMOOTH"
);
},
{
closed = 1;
nodes = (
"606 384 OFFCURVE",
"552 438 OFFCURVE",
"552 480 CURVE SMOOTH",
"552 522 OFFCURVE",
"606 576 OFFCURVE",
"696 576 CURVE SMOOTH",
"744 576 LINE SMOOTH",
"834 576 OFFCURVE",
"888 522 OFFCURVE",
"888 480 CURVE SMOOTH",
"888 438 OFFCURVE",
"834 384 OFFCURVE",
"744 384 CURVE SMOOTH",
"696 384 LINE SMOOTH"
);
}
);
width = 1008;
}
);
unicode = 00E6;
},
{
glyphname = b;
lastChange = "2020-02-10 16:27:10 +0000";
layers = (
{
layerId = "99C57DA8-5467-4805-A641-AC10645D6708";
paths = (
{
closed = 1;
nodes = (
"84 0 LINE SMOOTH",
"114 0 OFFCURVE",
"120 6 OFFCURVE",
"120 36 CURVE SMOOTH",
"120 96 OFFCURVE",
"120 108 OFFCURVE",
"144 108 CURVE SMOOTH",
"168 108 OFFCURVE",
"168 96 OFFCURVE",
"168 36 CURVE SMOOTH",
"168 6 OFFCURVE",
"174 0 OFFCURVE",
"204 0 CURVE SMOOTH",
"372 0 LINE SMOOTH",
"402 0 OFFCURVE",
"408 6 OFFCURVE",
"408 36 CURVE SMOOTH",
"408 90 OFFCURVE",
"462 144 OFFCURVE",
"516 144 CURVE SMOOTH",
"546 144 OFFCURVE",
"552 150 OFFCURVE",
"552 180 CURVE SMOOTH",
"552 492 LINE SMOOTH",
"552 522 OFFCURVE",
"546 528 OFFCURVE",
"516 528 CURVE SMOOTH",
"462 528 OFFCURVE",
"408 582 OFFCURVE",
"408 636 CURVE SMOOTH",
"408 666 OFFCURVE",
"402 672 OFFCURVE",
"372 672 CURVE SMOOTH",
"204 672 LINE SMOOTH",
"174 672 OFFCURVE",
"168 666 OFFCURVE",
"168 636 CURVE SMOOTH",
"168 576 OFFCURVE",
"168 564 OFFCURVE",
"144 564 CURVE SMOOTH",
"120 564 OFFCURVE",
"120 576 OFFCURVE",
"120 636 CURVE SMOOTH",
"120 876 LINE SMOOTH",
"120 906 OFFCURVE",
"114 912 OFFCURVE",
"84 912 CURVE SMOOTH",
"66 912 LINE SMOOTH",
"30 912 OFFCURVE",
"24 906 OFFCURVE",
"24 876 CURVE SMOOTH",
"24 36 LINE SMOOTH",
"24 6 OFFCURVE",
"30 0 OFFCURVE",
"60 0 CURVE SMOOTH"
);
},
{
closed = 1;
nodes = (
"174 96 OFFCURVE",
"120 150 OFFCURVE",
"120 240 CURVE SMOOTH",
"120 432 LINE SMOOTH",
"120 522 OFFCURVE",
"174 576 OFFCURVE",
"264 576 CURVE SMOOTH",
"312 576 LINE SMOOTH",
"402 576 OFFCURVE",
"456 522 OFFCURVE",
"456 432 CURVE SMOOTH",
"456 240 LINE SMOOTH",
"456 150 OFFCURVE",
"402 96 OFFCURVE",
"312 96 CURVE SMOOTH",
"264 96 LINE SMOOTH"
);
}
);
width = 576;
}
);
unicode = 0062;
},
{
glyphname = c;
lastChange = "2022-05-07 19:40:26 +0000";
layers = (
{
layerId = "99C57DA8-5467-4805-A641-AC10645D6708";
paths = (
{
closed = 1;
nodes = (
"372 0 LINE SMOOTH",
"402 0 OFFCURVE",
"408 6 OFFCURVE",
"408 36 CURVE SMOOTH",
"408 90 OFFCURVE",
"462 144 OFFCURVE",
"516 144 CURVE SMOOTH",
"546 144 OFFCURVE",
"552 150 OFFCURVE",
"552 180 CURVE SMOOTH",
"552 204 LINE SMOOTH",
"552 234 OFFCURVE",
"546 240 OFFCURVE",
"516 240 CURVE SMOOTH",
"492 240 LINE SMOOTH",
"462 240 OFFCURVE",
"456 234 OFFCURVE",
"456 192 CURVE SMOOTH",
"456 149 OFFCURVE",
"402 96 OFFCURVE",
"312 96 CURVE SMOOTH",
"264 96 LINE SMOOTH",
"174 96 OFFCURVE",
"120 150 OFFCURVE",
"120 240 CURVE SMOOTH",
"120 432 LINE SMOOTH",
"120 522 OFFCURVE",
"174 576 OFFCURVE",
"264 576 CURVE SMOOTH",
"312 576 LINE SMOOTH",
"402 576 OFFCURVE",
"456 522 OFFCURVE",
"456 432 CURVE SMOOTH",
"456 390 OFFCURVE",
"462 384 OFFCURVE",
"492 384 CURVE SMOOTH",
"516 384 LINE SMOOTH",
"546 384 OFFCURVE",
"552 390 OFFCURVE",
"552 432 CURVE SMOOTH",
"552 492 LINE SMOOTH",
"552 522 OFFCURVE",
"546 528 OFFCURVE",
"516 528 CURVE SMOOTH",
"462 528 OFFCURVE",
"408 582 OFFCURVE",
"408 636 CURVE SMOOTH",
"408 666 OFFCURVE",
"402 672 OFFCURVE",
"372 672 CURVE SMOOTH",
"204 672 LINE SMOOTH",
"174 672 OFFCURVE",
"168 666 OFFCURVE",
"168 636 CURVE SMOOTH",
"168 582 OFFCURVE",
"114 528 OFFCURVE",
"60 528 CURVE SMOOTH",
"30 528 OFFCURVE",
"24 522 OFFCURVE",
"24 492 CURVE SMOOTH",
"24 180 LINE SMOOTH",
"24 150 OFFCURVE",
"30 144 OFFCURVE",
"60 144 CURVE SMOOTH",
"114 144 OFFCURVE",
"168 90 OFFCURVE",
"168 36 CURVE SMOOTH",
"168 6 OFFCURVE",
"174 0 OFFCURVE",
"204 0 CURVE SMOOTH"
);
}
);
width = 576;
}
);
unicode = 0063;
},
{
glyphname = d;
lastChange = "2022-05-07 19:44:20 +0000";
layers = (
{
background = {
paths = (
{
closed = 1;
nodes = (
"372 0 LINE SMOOTH",
"402 0 OFFCURVE",
"408 6 OFFCURVE",
"408 36 CURVE SMOOTH",
"408 96 OFFCURVE",
"408 108 OFFCURVE",
"432 108 CURVE SMOOTH",
"456 108 OFFCURVE",
"456 96 OFFCURVE",
"456 36 CURVE SMOOTH",
"456 6 OFFCURVE",
"462 0 OFFCURVE",
"492 0 CURVE SMOOTH",
"516 0 LINE SMOOTH",
"546 0 OFFCURVE",
"552 6 OFFCURVE",
"552 36 CURVE SMOOTH",
"552 876 LINE SMOOTH",
"552 906 OFFCURVE",
"546 912 OFFCURVE",
"510 912 CURVE SMOOTH",
"492 912 LINE SMOOTH",
"462 912 OFFCURVE",
"456 906 OFFCURVE",
"456 876 CURVE SMOOTH",
"456 698 LINE",
"456 672 LINE",
"456 636 LINE SMOOTH",
"456 576 OFFCURVE",
"456 564 OFFCURVE",
"432 564 CURVE SMOOTH",
"408 564 OFFCURVE",
"408 576 OFFCURVE",
"408 636 CURVE SMOOTH",
"408 666 OFFCURVE",
"402 672 OFFCURVE",
"372 672 CURVE SMOOTH",
"204 672 LINE SMOOTH",
"174 672 OFFCURVE",
"168 666 OFFCURVE",
"168 636 CURVE SMOOTH",
"168 582 OFFCURVE",
"114 528 OFFCURVE",
"60 528 CURVE SMOOTH",
"30 528 OFFCURVE",
"24 522 OFFCURVE",
"24 492 CURVE SMOOTH",
"24 180 LINE SMOOTH",
"24 150 OFFCURVE",
"30 144 OFFCURVE",
"60 144 CURVE SMOOTH",
"114 144 OFFCURVE",
"168 90 OFFCURVE",
"168 36 CURVE SMOOTH",
"168 6 OFFCURVE",
"174 0 OFFCURVE",
"204 0 CURVE SMOOTH"
);
},
{
closed = 1;
nodes = (
"174 96 OFFCURVE",
"120 150 OFFCURVE",
"120 240 CURVE SMOOTH",
"120 432 LINE SMOOTH",
"120 522 OFFCURVE",
"174 576 OFFCURVE",
"264 576 CURVE SMOOTH",
"312 576 LINE SMOOTH",
"402 576 OFFCURVE",
"456 522 OFFCURVE",
"456 432 CURVE SMOOTH",
"456 240 LINE SMOOTH",
"456 150 OFFCURVE",
"402 96 OFFCURVE",
"312 96 CURVE SMOOTH",
"264 96 LINE SMOOTH"
);
}
);
};
layerId = "99C57DA8-5467-4805-A641-AC10645D6708";
paths = (
{
closed = 1;
nodes = (
"372 0 LINE SMOOTH",
"402 0 OFFCURVE",
"408 6 OFFCURVE",
"408 36 CURVE SMOOTH",
"408 96 OFFCURVE",
"408 108 OFFCURVE",
"432 108 CURVE SMOOTH",
"456 108 OFFCURVE",
"456 96 OFFCURVE",
"456 36 CURVE SMOOTH",
"456 6 OFFCURVE",
"462 0 OFFCURVE",
"492 0 CURVE SMOOTH",
"516 0 LINE SMOOTH",
"546 0 OFFCURVE",
"552 6 OFFCURVE",
"552 36 CURVE SMOOTH",
"552 876 LINE SMOOTH",
"552 906 OFFCURVE",
"546 912 OFFCURVE",
"510 912 CURVE SMOOTH",
"492 912 LINE SMOOTH",
"462 912 OFFCURVE",
"456 906 OFFCURVE",
"456 876 CURVE SMOOTH",
"456 744 LINE SMOOTH",
"456 636 OFFCURVE",
"528 696 OFFCURVE",
"528 636 CURVE SMOOTH",
"528 588 LINE SMOOTH",
"528 570 OFFCURVE",
"528 564 OFFCURVE",
"510 564 CURVE SMOOTH",
"492 564 OFFCURVE",
"492 576 OFFCURVE",
"492 636 CURVE SMOOTH",
"492 666 OFFCURVE",
"486 672 OFFCURVE",
"456 672 CURVE SMOOTH",
"204 672 LINE SMOOTH",
"174 672 OFFCURVE",
"168 666 OFFCURVE",
"168 636 CURVE SMOOTH",
"168 582 OFFCURVE",
"114 528 OFFCURVE",
"60 528 CURVE SMOOTH",
"30 528 OFFCURVE",
"24 522 OFFCURVE",
"24 492 CURVE SMOOTH",
"24 180 LINE SMOOTH",
"24 150 OFFCURVE",
"30 144 OFFCURVE",
"60 144 CURVE SMOOTH",
"114 144 OFFCURVE",
"168 90 OFFCURVE",
"168 36 CURVE SMOOTH",
"168 6 OFFCURVE",
"174 0 OFFCURVE",
"204 0 CURVE SMOOTH"
);
},
{
closed = 1;
nodes = (
"174 96 OFFCURVE",
"120 150 OFFCURVE",
"120 240 CURVE SMOOTH",
"120 432 LINE SMOOTH",
"120 522 OFFCURVE",
"174 576 OFFCURVE",
"264 576 CURVE SMOOTH",
"312 576 LINE SMOOTH",
"402 576 OFFCURVE",
"456 522 OFFCURVE",
"456 432 CURVE SMOOTH",
"456 240 LINE SMOOTH",
"456 150 OFFCURVE",
"402 96 OFFCURVE",
"312 96 CURVE SMOOTH",
"264 96 LINE SMOOTH"
);
}
);
width = 576;
}
);
unicode = 0064;
},
{
glyphname = e;
lastChange = "2022-05-07 19:39:35 +0000";
layers = (
{
layerId = "99C57DA8-5467-4805-A641-AC10645D6708";
paths = (
{
closed = 1;
nodes = (
"348 0 LINE SMOOTH",
"378 0 OFFCURVE",
"384 6 OFFCURVE",
"384 36 CURVE SMOOTH",
"384 90 OFFCURVE",
"438 144 OFFCURVE",
"492 144 CURVE SMOOTH",
"522 144 OFFCURVE",
"528 150 OFFCURVE",
"528 180 CURVE SMOOTH",
"528 240 LINE SMOOTH",
"528 282 OFFCURVE",
"522 288 OFFCURVE",
"492 288 CURVE SMOOTH",
"468 288 LINE SMOOTH",
"438 288 OFFCURVE",
"432 282 OFFCURVE",
"432 240 CURVE SMOOTH",
"432 150 OFFCURVE",
"378 96 OFFCURVE",
"288 96 CURVE SMOOTH",
"264 96 LINE SMOOTH",
"174 96 OFFCURVE",
"120 150 OFFCURVE",
"120 240 CURVE SMOOTH",
"120 402 OFFCURVE",
"126 408 OFFCURVE",
"144 408 CURVE SMOOTH",
"162 408 OFFCURVE",
"168 402 OFFCURVE",
"168 324 CURVE SMOOTH",
"168 294 OFFCURVE",
"174 288 OFFCURVE",
"204 288 CURVE SMOOTH",
"372 288 LINE SMOOTH",
"402 288 OFFCURVE",
"408 294 OFFCURVE",
"408 324 CURVE SMOOTH",
"408 378 OFFCURVE",
"462 432 OFFCURVE",
"516 432 CURVE SMOOTH",
"546 432 OFFCURVE",
"552 438 OFFCURVE",
"552 468 CURVE SMOOTH",
"552 492 LINE SMOOTH",
"552 522 OFFCURVE",
"546 528 OFFCURVE",
"516 528 CURVE SMOOTH",
"462 528 OFFCURVE",
"408 582 OFFCURVE",
"408 636 CURVE SMOOTH",
"408 666 OFFCURVE",
"402 672 OFFCURVE",
"372 672 CURVE SMOOTH",
"204 672 LINE SMOOTH",
"174 672 OFFCURVE",
"168 666 OFFCURVE",
"168 636 CURVE SMOOTH",
"168 582 OFFCURVE",
"114 528 OFFCURVE",
"60 528 CURVE SMOOTH",
"30 528 OFFCURVE",
"24 522 OFFCURVE",
"24 492 CURVE SMOOTH",
"24 180 LINE SMOOTH",
"24 150 OFFCURVE",
"30 144 OFFCURVE",
"60 144 CURVE SMOOTH",
"114 144 OFFCURVE",
"168 90 OFFCURVE",
"168 36 CURVE SMOOTH",
"168 6 OFFCURVE",
"174 0 OFFCURVE",
"204 0 CURVE SMOOTH"
);
},
{
closed = 1;
nodes = (
"120 522 OFFCURVE",
"174 576 OFFCURVE",
"264 576 CURVE SMOOTH",
"312 576 LINE SMOOTH",
"402 576 OFFCURVE",
"456 522 OFFCURVE",
"456 480 CURVE SMOOTH",
"456 438 OFFCURVE",
"402 384 OFFCURVE",
"312 384 CURVE SMOOTH",
"264 384 LINE SMOOTH",
"174 384 OFFCURVE",
"120 438 OFFCURVE",
"120 480 CURVE SMOOTH"
);
}
);
width = 576;
}
);
unicode = 0065;
},
{
glyphname = f;
lastChange = "2020-02-10 16:27:10 +0000";
layers = (
{
layerId = "99C57DA8-5467-4805-A641-AC10645D6708";
paths = (
{
closed = 1;
nodes = (
"84 0 LINE SMOOTH",
"114 0 OFFCURVE",
"120 6 OFFCURVE",
"120 36 CURVE SMOOTH",
"120 288 LINE SMOOTH",
"120 378 OFFCURVE",
"174 432 OFFCURVE",
"264 432 CURVE SMOOTH",
"468 432 LINE SMOOTH",
"498 432 OFFCURVE",
"504 438 OFFCURVE",
"504 468 CURVE SMOOTH",
"504 492 LINE SMOOTH",
"504 522 OFFCURVE",
"498 528 OFFCURVE",
"468 528 CURVE SMOOTH",
"204 528 LINE SMOOTH",
"174 528 OFFCURVE",
"168 522 OFFCURVE",
"168 492 CURVE SMOOTH",
"168 432 OFFCURVE",
"168 420 OFFCURVE",
"144 420 CURVE SMOOTH",
"120 420 OFFCURVE",
"120 432 OFFCURVE",
"120 492 CURVE SMOOTH",
"120 672 LINE SMOOTH",
"120 762 OFFCURVE",
"174 816 OFFCURVE",
"264 816 CURVE SMOOTH",
"354 816 OFFCURVE",
"408 762 OFFCURVE",
"408 672 CURVE SMOOTH",
"408 630 OFFCURVE",
"414 624 OFFCURVE",
"444 624 CURVE SMOOTH",
"468 624 LINE SMOOTH",
"498 624 OFFCURVE",
"504 630 OFFCURVE",
"504 672 CURVE SMOOTH",
"504 732 LINE SMOOTH",
"504 762 OFFCURVE",
"498 768 OFFCURVE",
"468 768 CURVE SMOOTH",
"414 768 OFFCURVE",
"360 822 OFFCURVE",
"360 876 CURVE SMOOTH",
"360 906 OFFCURVE",
"354 912 OFFCURVE",
"324 912 CURVE SMOOTH",
"204 912 LINE SMOOTH",
"174 912 OFFCURVE",
"168 906 OFFCURVE",
"168 876 CURVE SMOOTH",
"168 822 OFFCURVE",
"114 768 OFFCURVE",
"60 768 CURVE SMOOTH",
"30 768 OFFCURVE",
"24 762 OFFCURVE",
"24 732 CURVE SMOOTH",
"24 36 LINE SMOOTH",
"24 6 OFFCURVE",
"30 0 OFFCURVE",
"66 0 CURVE SMOOTH"
);
}
);
width = 528;
}
);
unicode = 0066;
},
{
glyphname = g;
lastChange = "2020-02-10 16:27:10 +0000";
layers = (
{
layerId = "99C57DA8-5467-4805-A641-AC10645D6708";
paths = (
{
closed = 1;
nodes = (
"372 -288 LINE SMOOTH",
"402 -288 OFFCURVE",
"408 -282 OFFCURVE",
"408 -252 CURVE SMOOTH",
"408 -198 OFFCURVE",
"462 -144 OFFCURVE",
"516 -144 CURVE SMOOTH",
"546 -144 OFFCURVE",
"552 -138 OFFCURVE",
"552 -108 CURVE SMOOTH",
"552 -84 LINE SMOOTH",
"552 -54 OFFCURVE",
"546 -48 OFFCURVE",
"516 -48 CURVE SMOOTH",
"462 -48 OFFCURVE",
"408 6 OFFCURVE",
"408 60 CURVE SMOOTH",
"408 90 OFFCURVE",
"402 96 OFFCURVE",
"372 96 CURVE SMOOTH",
"264 96 LINE SMOOTH",
"168 96 OFFCURVE",
"120 120 OFFCURVE",
"120 192 CURVE SMOOTH",
"120 264 OFFCURVE",
"168 288 OFFCURVE",
"264 288 CURVE SMOOTH",
"372 288 LINE SMOOTH",
"402 288 OFFCURVE",
"408 294 OFFCURVE",
"408 324 CURVE SMOOTH",
"408 378 OFFCURVE",
"462 432 OFFCURVE",
"516 432 CURVE SMOOTH",
"546 432 OFFCURVE",
"552 438 OFFCURVE",
"552 468 CURVE SMOOTH",
"552 642 LINE SMOOTH",
"552 666 OFFCURVE",
"546 672 OFFCURVE",
"504 672 CURVE SMOOTH",
"462 672 OFFCURVE",
"456 666 OFFCURVE",
"456 636 CURVE SMOOTH",
"456 582 OFFCURVE",
"450 576 OFFCURVE",
"432 576 CURVE SMOOTH",
"414 576 OFFCURVE",
"408 582 OFFCURVE",
"408 636 CURVE SMOOTH",
"408 666 OFFCURVE",
"402 672 OFFCURVE",
"372 672 CURVE SMOOTH",
"204 672 LINE SMOOTH",
"174 672 OFFCURVE",
"168 666 OFFCURVE",
"168 636 CURVE SMOOTH",
"168 582 OFFCURVE",
"114 528 OFFCURVE",
"60 528 CURVE SMOOTH",
"30 528 OFFCURVE",
"24 522 OFFCURVE",
"24 492 CURVE SMOOTH",
"24 468 LINE SMOOTH",
"24 438 OFFCURVE",
"30 432 OFFCURVE",
"60 432 CURVE SMOOTH",
"108 432 OFFCURVE",
"156 408 OFFCURVE",
"156 336 CURVE SMOOTH",
"156 264 OFFCURVE",
"108 240 OFFCURVE",
"60 240 CURVE SMOOTH",
"30 240 OFFCURVE",
"24 234 OFFCURVE",
"24 204 CURVE SMOOTH",
"24 180 LINE SMOOTH",
"24 150 OFFCURVE",
"30 144 OFFCURVE",
"60 144 CURVE SMOOTH",
"114 144 OFFCURVE",
"168 90 OFFCURVE",
"168 36 CURVE SMOOTH",
"168 6 OFFCURVE",
"174 0 OFFCURVE",
"204 0 CURVE SMOOTH",
"312 0 LINE SMOOTH",
"408 0 OFFCURVE",
"456 -24 OFFCURVE",
"456 -96 CURVE SMOOTH",
"456 -168 OFFCURVE",
"408 -192 OFFCURVE",
"312 -192 CURVE SMOOTH",
"264 -192 LINE SMOOTH",
"168 -192 OFFCURVE",
"120 -168 OFFCURVE",
"120 -108 CURVE SMOOTH",
"120 60 LINE SMOOTH",
"120 90 OFFCURVE",
"102 96 OFFCURVE",
"78 96 CURVE SMOOTH",
"30 96 OFFCURVE",
"24 90 OFFCURVE",
"24 60 CURVE SMOOTH",
"24 -108 LINE SMOOTH",
"24 -138 OFFCURVE",
"30 -144 OFFCURVE",
"60 -144 CURVE SMOOTH",
"114 -144 OFFCURVE",
"168 -198 OFFCURVE",
"168 -252 CURVE SMOOTH",
"168 -282 OFFCURVE",
"180 -288 OFFCURVE",
"204 -288 CURVE SMOOTH"
);
},
{
closed = 1;
nodes = (
"168 384 OFFCURVE",
"120 408 OFFCURVE",
"120 480 CURVE SMOOTH",
"120 552 OFFCURVE",
"168 576 OFFCURVE",
"264 576 CURVE SMOOTH",
"312 576 LINE SMOOTH",
"408 576 OFFCURVE",
"456 552 OFFCURVE",
"456 480 CURVE SMOOTH",
"456 408 OFFCURVE",
"408 384 OFFCURVE",
"312 384 CURVE SMOOTH",
"264 384 LINE SMOOTH"
);
}
);
width = 576;
}
);
unicode = 0067;
},
{
glyphname = h;
lastChange = "2020-02-10 16:27:10 +0000";
layers = (
{
layerId = "99C57DA8-5467-4805-A641-AC10645D6708";
paths = (
{
closed = 1;
nodes = (
"84 0 LINE SMOOTH",
"114 0 OFFCURVE",
"120 6 OFFCURVE",
"120 36 CURVE SMOOTH",
"120 432 LINE SMOOTH",
"120 522 OFFCURVE",
"174 576 OFFCURVE",
"264 576 CURVE SMOOTH",
"312 576 LINE SMOOTH",
"402 576 OFFCURVE",
"456 522 OFFCURVE",
"456 432 CURVE SMOOTH",
"456 36 LINE SMOOTH",
"456 6 OFFCURVE",
"462 0 OFFCURVE",
"498 0 CURVE SMOOTH",
"516 0 LINE SMOOTH",
"546 0 OFFCURVE",
"552 6 OFFCURVE",
"552 36 CURVE SMOOTH",
"552 492 LINE SMOOTH",
"552 522 OFFCURVE",
"546 528 OFFCURVE",
"516 528 CURVE SMOOTH",
"462 528 OFFCURVE",
"408 582 OFFCURVE",
"408 636 CURVE SMOOTH",
"408 666 OFFCURVE",
"402 672 OFFCURVE",
"372 672 CURVE SMOOTH",
"204 672 LINE SMOOTH",
"174 672 OFFCURVE",
"168 666 OFFCURVE",
"168 636 CURVE SMOOTH",
"168 576 OFFCURVE",
"168 564 OFFCURVE",
"144 564 CURVE SMOOTH",
"120 564 OFFCURVE",
"120 576 OFFCURVE",
"120 636 CURVE SMOOTH",
"120 876 LINE SMOOTH",
"120 906 OFFCURVE",
"114 912 OFFCURVE",
"84 912 CURVE SMOOTH",
"66 912 LINE SMOOTH",
"30 912 OFFCURVE",
"24 906 OFFCURVE",
"24 876 CURVE SMOOTH",
"24 36 LINE SMOOTH",
"24 6 OFFCURVE",
"30 0 OFFCURVE",
"60 0 CURVE SMOOTH"
);
}
);
width = 576;
}
);
unicode = 0068;
},
{
glyphname = i;
lastChange = "2022-05-07 20:20:58 +0000";
layers = (
{
background = {
paths = (
{
closed = 1;
nodes = (
"120 864 LINE",
"120 960 LINE",
"24 960 LINE",
"24 864 LINE"
);
},
{
closed = 1;
nodes = (
"120 720 LINE",
"120 816 LINE",
"24 816 LINE",
"24 720 LINE"
);
}
);
};
layerId = "99C57DA8-5467-4805-A641-AC10645D6708";
paths = (
{
closed = 1;
nodes = (
"96 0 LINE SMOOTH",
"114 0 OFFCURVE",
"120 6 OFFCURVE",
"120 24 CURVE SMOOTH",
"120 648 LINE SMOOTH",
"120 666 OFFCURVE",
"114 672 OFFCURVE",
"96 672 CURVE SMOOTH",
"48 672 LINE SMOOTH",
"30 672 OFFCURVE",
"24 666 OFFCURVE",
"24 648 CURVE SMOOTH",
"24 24 LINE SMOOTH",
"24 6 OFFCURVE",
"30 0 OFFCURVE",
"48 0 CURVE SMOOTH"
);
},
{
closed = 1;
nodes = (
"96 864 LINE SMOOTH",
"114 864 OFFCURVE",
"120 870 OFFCURVE",
"120 888 CURVE SMOOTH",
"120 936 LINE SMOOTH",
"120 954 OFFCURVE",
"114 960 OFFCURVE",
"96 960 CURVE SMOOTH",
"48 960 LINE SMOOTH",
"30 960 OFFCURVE",
"24 954 OFFCURVE",
"24 936 CURVE SMOOTH",
"24 888 LINE SMOOTH",
"24 870 OFFCURVE",
"30 864 OFFCURVE",
"48 864 CURVE SMOOTH"
);
}
);
width = 144;
}
);
unicode = 0069;
},
{
glyphname = j;
lastChange = "2022-05-07 19:08:27 +0000";
layers = (
{
layerId = "99C57DA8-5467-4805-A641-AC10645D6708";
paths = (
{
closed = 1;
nodes = (
"84 -288 LINE SMOOTH",
"114 -288 OFFCURVE",
"120 -282 OFFCURVE",
"120 -252 CURVE SMOOTH",
"120 636 LINE SMOOTH",
"120 666 OFFCURVE",
"114 672 OFFCURVE",
"78 672 CURVE SMOOTH",
"60 672 LINE SMOOTH",
"30 672 OFFCURVE",
"24 666 OFFCURVE",
"24 636 CURVE SMOOTH",
"24 -252 LINE SMOOTH",
"24 -282 OFFCURVE",
"30 -288 OFFCURVE",
"60 -288 CURVE SMOOTH"
);
},
{
closed = 1;
nodes = (
"84 720 LINE SMOOTH",
"114 720 OFFCURVE",
"120 726 OFFCURVE",
"120 756 CURVE SMOOTH",
"120 876 LINE SMOOTH",
"120 906 OFFCURVE",
"114 912 OFFCURVE",
"84 912 CURVE SMOOTH",
"60 912 LINE SMOOTH",
"30 912 OFFCURVE",
"24 906 OFFCURVE",
"24 876 CURVE SMOOTH",
"24 756 LINE SMOOTH",
"24 726 OFFCURVE",
"30 720 OFFCURVE",
"60 720 CURVE SMOOTH"
);
}
);
width = 144;
}
);
unicode = 006A;
},
{
glyphname = k;
lastChange = "2020-02-10 16:27:10 +0000";
layers = (
{
layerId = "99C57DA8-5467-4805-A641-AC10645D6708";
paths = (
{
closed = 1;
nodes = (
"84 0 LINE SMOOTH",
"114 0 OFFCURVE",
"120 6 OFFCURVE",
"120 36 CURVE SMOOTH",
"120 192 LINE SMOOTH",
"120 282 OFFCURVE",
"174 336 OFFCURVE",
"264 336 CURVE SMOOTH",
"354 336 OFFCURVE",
"408 282 OFFCURVE",
"408 192 CURVE SMOOTH",
"408 36 LINE SMOOTH",
"408 6 OFFCURVE",
"414 0 OFFCURVE",
"450 0 CURVE SMOOTH",
"468 0 LINE SMOOTH",
"498 0 OFFCURVE",
"504 6 OFFCURVE",
"504 36 CURVE SMOOTH",
"504 252 LINE SMOOTH",
"504 282 OFFCURVE",
"498 288 OFFCURVE",
"468 288 CURVE SMOOTH",
"420 288 OFFCURVE",
"360 294 OFFCURVE",
"360 384 CURVE SMOOTH",
"360 474 OFFCURVE",
"420 480 OFFCURVE",
"468 480 CURVE SMOOTH",
"498 480 OFFCURVE",
"504 486 OFFCURVE",
"504 516 CURVE SMOOTH",
"504 636 LINE SMOOTH",
"504 666 OFFCURVE",
"498 672 OFFCURVE",
"468 672 CURVE SMOOTH",
"450 672 LINE SMOOTH",
"414 672 OFFCURVE",
"408 666 OFFCURVE",
"408 636 CURVE SMOOTH",
"408 576 LINE SMOOTH",
"408 486 OFFCURVE",
"354 432 OFFCURVE",
"264 432 CURVE SMOOTH",
"204 432 LINE SMOOTH",
"174 432 OFFCURVE",
"168 426 OFFCURVE",
"168 396 CURVE SMOOTH",
"168 336 OFFCURVE",
"168 324 OFFCURVE",
"144 324 CURVE SMOOTH",
"120 324 OFFCURVE",
"120 336 OFFCURVE",
"120 396 CURVE SMOOTH",
"120 876 LINE SMOOTH",
"120 906 OFFCURVE",
"114 912 OFFCURVE",
"84 912 CURVE SMOOTH",
"66 912 LINE SMOOTH",
"30 912 OFFCURVE",
"24 906 OFFCURVE",
"24 876 CURVE SMOOTH",
"24 36 LINE SMOOTH",
"24 6 OFFCURVE",
"30 0 OFFCURVE",
"60 0 CURVE SMOOTH"
);
}
);
width = 528;
}
);
unicode = 006B;
},
{
glyphname = l;
lastChange = "2022-05-07 19:26:44 +0000";
layers = (
{
layerId = "99C57DA8-5467-4805-A641-AC10645D6708";
paths = (
{
closed = 1;
nodes = (
"348 0 LINE SMOOTH",
"378 0 OFFCURVE",
"384 6 OFFCURVE",
"384 36 CURVE SMOOTH",
"384 90 OFFCURVE",
"438 144 OFFCURVE",
"492 144 CURVE SMOOTH",
"522 144 OFFCURVE",
"528 150 OFFCURVE",
"528 180 CURVE SMOOTH",
"528 240 LINE SMOOTH",
"528 282 OFFCURVE",
"522 288 OFFCURVE",
"492 288 CURVE SMOOTH",
"468 288 LINE SMOOTH",
"438 288 OFFCURVE",
"432 282 OFFCURVE",
"432 240 CURVE SMOOTH",
"432 150 OFFCURVE",
"378 96 OFFCURVE",
"288 96 CURVE SMOOTH",
"264 96 LINE SMOOTH",
"174 96 OFFCURVE",
"120 150 OFFCURVE",
"120 240 CURVE SMOOTH",
"120 876 LINE SMOOTH",
"120 906 OFFCURVE",
"114 912 OFFCURVE",
"84 912 CURVE SMOOTH",
"60 912 LINE SMOOTH",
"30 912 OFFCURVE",
"24 906 OFFCURVE",
"24 876 CURVE SMOOTH",
"24 180 LINE SMOOTH",
"24 150 OFFCURVE",
"30 144 OFFCURVE",
"60 144 CURVE SMOOTH",
"114 144 OFFCURVE",
"168 90 OFFCURVE",
"168 36 CURVE SMOOTH",
"168 6 OFFCURVE",
"174 0 OFFCURVE",
"204 0 CURVE SMOOTH"
);
}
);
width = 552;
}
);
unicode = 006C;
},
{
glyphname = m;
lastChange = "2022-05-07 21:07:06 +0000";
layers = (
{
layerId = "99C57DA8-5467-4805-A641-AC10645D6708";
paths = (
{
closed = 1;
nodes = (
"120 0 LINE SMOOTH",
"138 0 OFFCURVE",
"144 6 OFFCURVE",
"144 24 CURVE SMOOTH",
"144 432 LINE SMOOTH",
"144 570 OFFCURVE",
"150 576 OFFCURVE",
"240 576 CURVE SMOOTH",
"330 576 OFFCURVE",
"336 570 OFFCURVE",
"336 432 CURVE SMOOTH",
"336 24 LINE SMOOTH",
"336 5 OFFCURVE",
"342 0 OFFCURVE",
"360 0 CURVE SMOOTH",
"408 0 LINE SMOOTH",
"426 0 OFFCURVE",
"432 6 OFFCURVE",
"432 24 CURVE SMOOTH",
"432 432 LINE SMOOTH",
"432 570 OFFCURVE",
"438 576 OFFCURVE",
"528 576 CURVE SMOOTH",
"618 576 OFFCURVE",
"624 570 OFFCURVE",
"624 432 CURVE SMOOTH",
"624 24 LINE SMOOTH",
"624 5 OFFCURVE",
"630 0 OFFCURVE",
"648 0 CURVE SMOOTH",
"696 0 LINE SMOOTH",
"714 0 OFFCURVE",
"720 6 OFFCURVE",
"720 24 CURVE SMOOTH",
"720 504 LINE SMOOTH",
"720 522 OFFCURVE",
"714 528 OFFCURVE",
"696 528 CURVE SMOOTH",
"624 528 OFFCURVE",
"624 576 OFFCURVE",
"624 648 CURVE SMOOTH",
"624 666 OFFCURVE",
"618 672 OFFCURVE",
"600 672 CURVE SMOOTH",
"432 672 LINE SMOOTH",
"414 672 OFFCURVE",
"408 666 OFFCURVE",
"408 648 CURVE SMOOTH",
"408 534 OFFCURVE",
"402 528 OFFCURVE",
"384 528 CURVE SMOOTH",
"366 528 OFFCURVE",
"360 534 OFFCURVE",
"360 648 CURVE SMOOTH",
"360 666 OFFCURVE",
"354 672 OFFCURVE",
"336 672 CURVE SMOOTH",
"216 672 LINE SMOOTH",
"198 672 OFFCURVE",
"192 666 OFFCURVE",
"192 648 CURVE SMOOTH",
"192 606 OFFCURVE",
"186 600 OFFCURVE",
"168 600 CURVE SMOOTH",
"150 600 OFFCURVE",
"144 606 OFFCURVE",
"144 648 CURVE SMOOTH",
"144 666 OFFCURVE",
"138 672 OFFCURVE",
"120 672 CURVE SMOOTH",
"72 672 LINE SMOOTH",
"54 672 OFFCURVE",
"48 666 OFFCURVE",
"48 648 CURVE SMOOTH",
"48 24 LINE SMOOTH",
"48 6 OFFCURVE",
"54 0 OFFCURVE",
"72 0 CURVE SMOOTH"
);
}
);
width = 768;
}
);
unicode = 006D;
},
{
glyphname = n;
lastChange = "2022-05-07 21:06:55 +0000";
layers = (
{
background = {
paths = (
{
closed = 1;
nodes = (
"119 0 LINE SMOOTH",
"138 0 OFFCURVE",
"144 6 OFFCURVE",
"144 24 CURVE SMOOTH",
"144 648 LINE SMOOTH",
"144 666 OFFCURVE",
"138 672 OFFCURVE",
"121 672 CURVE SMOOTH",
"72 672 LINE SMOOTH",
"54 672 OFFCURVE",
"48 666 OFFCURVE",
"48 648 CURVE SMOOTH",
"48 24 LINE SMOOTH",
"48 6 OFFCURVE",
"54 0 OFFCURVE",
"72 0 CURVE SMOOTH"
);
},
{
closed = 1;
nodes = (
"288 0 LINE",
"288 96 LINE",
"192 96 LINE",
"192 0 LINE"
);
},
{
closed = 1;
nodes = (
"288 144 LINE",
"288 240 LINE",
"192 240 LINE",
"192 144 LINE"
);
},
{
closed = 1;
nodes = (
"432 0 LINE",
"432 96 LINE",
"336 96 LINE",
"336 0 LINE"
);
},
{
closed = 1;
nodes = (
"288 288 LINE",
"288 384 LINE",
"192 384 LINE",
"192 288 LINE"
);
},
{
closed = 1;
nodes = (
"432 144 LINE",
"432 240 LINE",
"336 240 LINE",
"336 144 LINE"
);
},
{
closed = 1;
nodes = (
"144 528 OFFCURVE",
"192 576 OFFCURVE",
"288 576 CURVE",
"192 648 LINE",
"192 576 OFFCURVE",
"144 528 OFFCURVE",
"72 528 CURVE",
"144 432 LINE"
);
},
{
closed = 1;
nodes = (
"432 288 LINE",
"432 384 LINE",
"336 384 LINE",
"336 288 LINE"
);
},
{
closed = 1;
nodes = (
"288 432 LINE",
"288 528 LINE",
"192 528 LINE",
"192 432 LINE"
);
},
{
closed = 1;
nodes = (
"552 0 LINE SMOOTH",
"570 0 OFFCURVE",
"576 6 OFFCURVE",
"576 24 CURVE SMOOTH",
"576 504 LINE SMOOTH",
"576 522 OFFCURVE",
"570 528 OFFCURVE",
"552 528 CURVE SMOOTH",
"480 528 LINE",
"480 24 LINE SMOOTH",
"480 5 OFFCURVE",
"486 0 OFFCURVE",
"503 0 CURVE SMOOTH"
);
},
{
closed = 1;
nodes = (
"432 432 LINE",
"432 528 LINE",
"336 528 LINE",
"336 432 LINE"
);
},
{
closed = 1;
nodes = (
"432 576 LINE",
"432 648 LINE SMOOTH",
"432 666 OFFCURVE",
"426 672 OFFCURVE",
"408 672 CURVE SMOOTH",
"216 672 LINE SMOOTH",
"198 672 OFFCURVE",
"192 666 OFFCURVE",
"192 648 CURVE SMOOTH",
"192 576 LINE"
);
},
{
closed = 1;
nodes = (
"552 528 LINE",
"480 528 OFFCURVE",
"432 576 OFFCURVE",
"432 648 CURVE",
"336 576 LINE",
"432 576 OFFCURVE",
"480 528 OFFCURVE",
"480 432 CURVE"
);
},
{
closed = 1;
nodes = (
"576 576 LINE",
"576 672 LINE",
"480 672 LINE",
"480 576 LINE"
);
}
);
};
layerId = "99C57DA8-5467-4805-A641-AC10645D6708";
paths = (
{
closed = 1;
nodes = (
"192 0 LINE SMOOTH",
"210 0 OFFCURVE",
"216 6 OFFCURVE",
"216 24 CURVE SMOOTH",
"216 432 LINE SMOOTH",
"216 528 OFFCURVE",
"264 576 OFFCURVE",
"360 576 CURVE SMOOTH",
"408 576 LINE SMOOTH",
"504 576 OFFCURVE",
"552 528 OFFCURVE",
"552 432 CURVE SMOOTH",
"552 24 LINE SMOOTH",
"552 5 OFFCURVE",
"558 0 OFFCURVE",
"576 0 CURVE SMOOTH",
"624 0 LINE SMOOTH",
"642 0 OFFCURVE",
"648 6 OFFCURVE",
"648 24 CURVE SMOOTH",
"648 504 LINE SMOOTH",
"648 522 OFFCURVE",
"642 528 OFFCURVE",
"624 528 CURVE SMOOTH",
"552 528 OFFCURVE",
"504 576 OFFCURVE",
"504 648 CURVE SMOOTH",
"504 666 OFFCURVE",
"498 672 OFFCURVE",
"480 672 CURVE SMOOTH",
"288 672 LINE SMOOTH",
"270 672 OFFCURVE",
"264 666 OFFCURVE",
"264 648 CURVE SMOOTH",
"264 582 OFFCURVE",
"258 576 OFFCURVE",
"240 576 CURVE SMOOTH",
"222 576 OFFCURVE",
"216 582 OFFCURVE",
"216 648 CURVE SMOOTH",
"216 666 OFFCURVE",
"210 672 OFFCURVE",
"192 672 CURVE SMOOTH",
"144 672 LINE SMOOTH",
"126 672 OFFCURVE",
"120 666 OFFCURVE",
"120 648 CURVE SMOOTH",
"120 24 LINE SMOOTH",
"120 6 OFFCURVE",
"126 0 OFFCURVE",
"144 0 CURVE SMOOTH"
);
}
);
width = 768;
}
);
unicode = 006E;
},
{
glyphname = o;
lastChange = "2022-05-07 21:17:11 +0000";
layers = (
{
background = {
paths = (
{
closed = 1;
nodes = (
"648 864 LINE",
"648 960 LINE",
"552 960 LINE",
"552 864 LINE"
);
},
{
closed = 1;
nodes = (
"216 -288 LINE",
"216 -192 LINE",
"120 -192 LINE",
"120 -288 LINE"
);
},
{
closed = 1;
nodes = (
"216 -144 LINE",
"216 -48 LINE",
"120 -48 LINE",
"120 -144 LINE"
);
},
{
closed = 1;
nodes = (
"360 -288 LINE",
"360 -192 LINE",
"264 -192 LINE",
"264 -288 LINE"
);
},
{
closed = 1;
nodes = (
"216 0 LINE",
"216 96 LINE",
"120 96 LINE",
"120 0 LINE"
);
},
{
closed = 1;
nodes = (
"360 -144 LINE",
"360 -48 LINE",
"264 -48 LINE",
"264 -144 LINE"
);
},
{
closed = 1;
nodes = (
"504 -288 LINE",
"504 -192 LINE",
"408 -192 LINE",
"408 -288 LINE"
);
},
{
closed = 1;
nodes = (
"216 144 LINE",
"216 240 LINE",
"120 240 LINE",
"120 144 LINE"
);
},
{
closed = 1;
nodes = (
"360 0 LINE",
"360 96 LINE",
"264 96 LINE",
"264 0 LINE"
);
},
{
closed = 1;
nodes = (
"504 -144 LINE",
"504 -48 LINE",
"408 -48 LINE",
"408 -144 LINE"
);
},
{
closed = 1;
nodes = (
"648 -288 LINE",
"648 -192 LINE",
"552 -192 LINE",
"552 -288 LINE"
);
},
{
closed = 1;
nodes = (
"216 288 LINE",
"216 384 LINE",
"120 384 LINE",
"120 288 LINE"
);
},
{
closed = 1;
nodes = (
"360 144 LINE",
"360 240 LINE",
"264 240 LINE",
"264 144 LINE"
);
},
{
closed = 1;
nodes = (
"504 0 LINE",
"504 96 LINE",
"408 96 LINE",
"408 0 LINE"
);
},
{
closed = 1;
nodes = (
"648 -144 LINE",
"648 -48 LINE",
"552 -48 LINE",
"552 -144 LINE"
);
},
{
closed = 1;
nodes = (
"216 432 LINE",
"216 528 LINE",
"120 528 LINE",
"120 432 LINE"
);
},
{
closed = 1;
nodes = (
"360 288 LINE",
"360 384 LINE",
"264 384 LINE",
"264 288 LINE"
);
},
{
closed = 1;
nodes = (
"504 144 LINE",
"504 240 LINE",
"408 240 LINE",
"408 144 LINE"
);
},
{
closed = 1;
nodes = (
"648 0 LINE",
"648 96 LINE",
"552 96 LINE",
"552 0 LINE"
);
},
{
closed = 1;
nodes = (
"360 432 LINE",
"360 528 LINE",
"264 528 LINE",
"264 432 LINE"
);
},
{
closed = 1;
nodes = (
"504 288 LINE",
"504 384 LINE",
"408 384 LINE",
"408 288 LINE"
);
},
{
closed = 1;
nodes = (
"648 144 LINE",
"648 240 LINE",
"552 240 LINE",
"552 144 LINE"
);
},
{
closed = 1;
nodes = (
"216 576 LINE",
"216 672 LINE",
"120 672 LINE",
"120 576 LINE"
);
},
{
closed = 1;
nodes = (
"504 432 LINE",
"504 528 LINE",
"408 528 LINE",
"408 432 LINE"
);
},
{
closed = 1;
nodes = (
"648 288 LINE",
"648 384 LINE",
"552 384 LINE",
"552 288 LINE"
);
},
{
closed = 1;
nodes = (
"216 720 LINE",
"216 816 LINE",
"120 816 LINE",
"120 720 LINE"
);
},
{
closed = 1;
nodes = (
"360 576 LINE",
"360 672 LINE",
"264 672 LINE",
"264 576 LINE"
);
},
{
closed = 1;
nodes = (
"648 432 LINE",
"648 528 LINE",
"552 528 LINE",
"552 432 LINE"
);
},
{
closed = 1;
nodes = (
"216 864 LINE",
"216 960 LINE",
"120 960 LINE",
"120 864 LINE"
);
},
{
closed = 1;
nodes = (
"360 720 LINE",
"360 816 LINE",
"264 816 LINE",
"264 720 LINE"
);
},
{
closed = 1;
nodes = (
"504 576 LINE",
"504 672 LINE",
"408 672 LINE",
"408 576 LINE"
);
},
{
closed = 1;
nodes = (
"360 864 LINE",
"360 960 LINE",
"264 960 LINE",
"264 864 LINE"
);
},
{
closed = 1;
nodes = (
"504 720 LINE",
"504 816 LINE",
"408 816 LINE",
"408 720 LINE"
);
},
{
closed = 1;
nodes = (
"648 576 LINE",
"648 672 LINE",
"552 672 LINE",
"552 576 LINE"
);
},
{
closed = 1;
nodes = (
"504 864 LINE",
"504 960 LINE",
"408 960 LINE",
"408 864 LINE"
);
},
{
closed = 1;
nodes = (
"648 720 LINE",
"648 816 LINE",
"552 816 LINE",
"552 720 LINE"
);
},
{
closed = 1;
nodes = (
"792 864 LINE",
"792 960 LINE",
"696 960 LINE",
"696 864 LINE"
);
},
{
closed = 1;
nodes = (
"792 -288 LINE",
"792 -192 LINE",
"696 -192 LINE",
"696 -288 LINE"
);
},
{
closed = 1;
nodes = (
"792 -144 LINE",
"792 -48 LINE",
"696 -48 LINE",
"696 -144 LINE"
);
},
{
closed = 1;
nodes = (
"792 0 LINE",
"792 96 LINE",
"696 96 LINE",
"696 0 LINE"
);
},
{
closed = 1;
nodes = (
"792 144 LINE",
"792 240 LINE",
"696 240 LINE",
"696 144 LINE"
);
},
{
closed = 1;
nodes = (
"792 288 LINE",
"792 384 LINE",
"696 384 LINE",
"696 288 LINE"
);
},
{
closed = 1;
nodes = (
"792 432 LINE",
"792 528 LINE",
"696 528 LINE",
"696 432 LINE"
);
},
{
closed = 1;
nodes = (
"792 576 LINE",
"792 672 LINE",
"696 672 LINE",
"696 576 LINE"
);
},
{
closed = 1;
nodes = (
"792 720 LINE",
"792 816 LINE",
"696 816 LINE",
"696 720 LINE"
);
},
{
closed = 1;
nodes = (
"72 864 LINE",
"72 960 LINE",
"-24 960 LINE",
"-24 864 LINE"
);
},
{
closed = 1;
nodes = (
"72 -288 LINE",
"72 -192 LINE",
"-24 -192 LINE",
"-24 -288 LINE"
);
},
{
closed = 1;
nodes = (
"72 -144 LINE",
"72 -48 LINE",
"-24 -48 LINE",
"-24 -144 LINE"
);
},
{
closed = 1;
nodes = (
"72 0 LINE",
"72 96 LINE",
"-24 96 LINE",
"-24 0 LINE"
);
},
{
closed = 1;
nodes = (
"72 144 LINE",
"72 240 LINE",
"-24 240 LINE",
"-24 144 LINE"
);
},
{
closed = 1;
nodes = (
"72 288 LINE",
"72 384 LINE",
"-24 384 LINE",
"-24 288 LINE"
);
},
{
closed = 1;
nodes = (
"72 432 LINE",
"72 528 LINE",
"-24 528 LINE",
"-24 432 LINE"
);
},
{
closed = 1;
nodes = (
"72 576 LINE",
"72 672 LINE",
"-24 672 LINE",
"-24 576 LINE"
);
},
{
closed = 1;
nodes = (
"72 720 LINE",
"72 816 LINE",
"-24 816 LINE",
"-24 720 LINE"
);
}
);
};
layerId = "99C57DA8-5467-4805-A641-AC10645D6708";
paths = (
{
closed = 1;
nodes = (
"624 528 LINE",
"552 528 OFFCURVE",
"504 576 OFFCURVE",
"504 648 CURVE",
"408 576 LINE",
"504 576 OFFCURVE",
"552 528 OFFCURVE",
"552 432 CURVE"
);
},
{
closed = 1;
nodes = (
"360 96 LINE",
"264 96 OFFCURVE",
"216 144 OFFCURVE",
"216 240 CURVE",
"144 144 LINE",
"216 144 OFFCURVE",
"264 96 OFFCURVE",
"264 24 CURVE"
);
},
{
closed = 1;
nodes = (
"480 0 LINE SMOOTH",
"498 0 OFFCURVE",
"504 6 OFFCURVE",
"504 24 CURVE SMOOTH",
"504 96 LINE",
"264 96 LINE",
"264 24 LINE SMOOTH",
"264 6 OFFCURVE",
"270 0 OFFCURVE",
"288 0 CURVE SMOOTH"
);
},
{
closed = 1;
nodes = (
"216 144 LINE",
"216 528 LINE",
"144 528 LINE SMOOTH",
"126 528 OFFCURVE",
"120 522 OFFCURVE",
"120 504 CURVE SMOOTH",
"120 168 LINE SMOOTH",
"120 150 OFFCURVE",
"126 144 OFFCURVE",
"144 144 CURVE SMOOTH"
);
},
{
closed = 1;
nodes = (
"504 96 OFFCURVE",
"552 144 OFFCURVE",
"624 144 CURVE",
"552 240 LINE",
"552 144 OFFCURVE",
"504 96 OFFCURVE",
"408 96 CURVE",
"504 24 LINE"
);
},
{
closed = 1;
nodes = (
"216 528 OFFCURVE",
"264 576 OFFCURVE",
"360 576 CURVE",
"264 648 LINE",
"264 576 OFFCURVE",
"216 528 OFFCURVE",
"144 528 CURVE",
"216 432 LINE"
);
},
{
closed = 1;
nodes = (
"624 144 LINE SMOOTH",
"642 144 OFFCURVE",
"648 150 OFFCURVE",
"648 168 CURVE SMOOTH",
"648 504 LINE SMOOTH",
"648 522 OFFCURVE",
"642 528 OFFCURVE",
"624 528 CURVE SMOOTH",
"552 528 LINE",
"552 144 LINE"
);
},
{
closed = 1;
nodes = (
"504 576 LINE",
"504 648 LINE SMOOTH",
"504 666 OFFCURVE",
"498 672 OFFCURVE",
"480 672 CURVE SMOOTH",
"288 672 LINE SMOOTH",
"270 672 OFFCURVE",
"264 666 OFFCURVE",
"264 648 CURVE SMOOTH",
"264 576 LINE"
);
}
);
width = 768;
},
{
associatedMasterId = "99C57DA8-5467-4805-A641-AC10645D6708";
layerId = "CF352A7E-F132-47F1-A2A1-099DFC2D3822";
name = background;
paths = (
{
closed = 1;
nodes = (
"168 576 LINE",
"264 576 LINE",
"264 672 LINE",
"168 672 LINE"
);
},
{
closed = 1;
nodes = (
"312 576 LINE",
"408 576 LINE",
"408 672 LINE",
"312 672 LINE"
);
},
{
closed = 1;
nodes = (
"456 432 LINE",
"552 432 LINE",
"552 528 LINE",
"456 528 LINE"
);
},
{
closed = 1;
nodes = (
"456 288 LINE",
"552 288 LINE",
"552 384 LINE",
"456 384 LINE"
);
},
{
closed = 1;
nodes = (
"456 144 LINE",
"552 144 LINE",
"552 240 LINE",
"456 240 LINE"
);
},
{
closed = 1;
nodes = (
"168 0 LINE",
"264 0 LINE",
"264 96 LINE",
"168 96 LINE"
);
},
{
closed = 1;
nodes = (
"312 0 LINE",
"408 0 LINE",
"408 96 LINE",
"312 96 LINE"
);
},
{
closed = 1;
nodes = (
"312 432 LINE",
"408 432 LINE",
"408 528 LINE",
"312 528 LINE"
);
},
{
closed = 1;
nodes = (
"312 288 LINE",
"408 288 LINE",
"408 384 LINE",
"312 384 LINE"
);
},
{
closed = 1;
nodes = (
"312 144 LINE",
"408 144 LINE",
"408 240 LINE",
"312 240 LINE"
);
},
{
closed = 1;
nodes = (
"168 432 LINE",
"264 432 LINE",
"264 528 LINE",
"168 528 LINE"
);
},
{
closed = 1;
nodes = (
"168 288 LINE",
"264 288 LINE",
"264 384 LINE",
"168 384 LINE"
);
},
{
closed = 1;
nodes = (
"168 144 LINE",
"264 144 LINE",
"264 240 LINE",
"168 240 LINE"
);
},
{
closed = 1;
nodes = (
"24 432 LINE",
"120 432 LINE",
"120 528 LINE",
"24 528 LINE"
);
},
{
closed = 1;
nodes = (
"24 288 LINE",
"120 288 LINE",
"120 384 LINE",
"24 384 LINE"
);
},
{
closed = 1;
nodes = (
"24 144 LINE",
"120 144 LINE",
"120 240 LINE",
"24 240 LINE"
);
},
{
closed = 0;
nodes = (
"288 336 LINE"
);
},
{
closed = 1;
nodes = (
"456 -144 LINE",
"552 -144 LINE",
"552 -48 LINE",
"456 -48 LINE"
);
},
{
closed = 1;
nodes = (
"168 -288 LINE",
"264 -288 LINE",
"264 -192 LINE",
"168 -192 LINE"
);
},
{
closed = 1;
nodes = (
"312 -288 LINE",
"408 -288 LINE",
"408 -192 LINE",
"312 -192 LINE"
);
},
{
closed = 1;
nodes = (
"312 -144 LINE",
"408 -144 LINE",
"408 -48 LINE",
"312 -48 LINE"
);
},
{
closed = 1;
nodes = (
"168 -144 LINE",
"264 -144 LINE",
"264 -48 LINE",
"168 -48 LINE"
);
},
{
closed = 1;
nodes = (
"24 -144 LINE",
"120 -144 LINE",
"120 -48 LINE",
"24 -48 LINE"
);
},
{
closed = 1;
nodes = (
"168 864 LINE",
"264 864 LINE",
"264 960 LINE",
"168 960 LINE"
);
},
{
closed = 1;
nodes = (
"312 864 LINE",
"408 864 LINE",
"408 960 LINE",
"312 960 LINE"
);
},
{
closed = 1;
nodes = (
"456 720 LINE",
"552 720 LINE",
"552 816 LINE",
"456 816 LINE"
);
},
{
closed = 1;
nodes = (
"312 720 LINE",
"408 720 LINE",
"408 816 LINE",
"312 816 LINE"
);
},
{
closed = 1;
nodes = (
"168 720 LINE",
"264 720 LINE",
"264 816 LINE",
"168 816 LINE"
);
},
{
closed = 1;
nodes = (
"24 720 LINE",
"120 720 LINE",
"120 816 LINE",
"24 816 LINE"
);
}
);
visible = 1;
width = 576;
}
);
unicode = 006F;
},
{
glyphname = p;
lastChange = "2020-02-10 16:26:19 +0000";
layers = (
{
layerId = "99C57DA8-5467-4805-A641-AC10645D6708";
paths = (
{
closed = 1;
nodes = (
"84 -288 LINE SMOOTH",
"114 -288 OFFCURVE",
"120 -282 OFFCURVE",
"120 -252 CURVE SMOOTH",
"120 36 LINE SMOOTH",
"120 96 OFFCURVE",
"120 108 OFFCURVE",
"144 108 CURVE SMOOTH",
"168 108 OFFCURVE",
"168 96 OFFCURVE",
"168 36 CURVE SMOOTH",
"168 6 OFFCURVE",
"174 0 OFFCURVE",
"204 0 CURVE SMOOTH",
"372 0 LINE SMOOTH",
"402 0 OFFCURVE",
"408 6 OFFCURVE",
"408 36 CURVE SMOOTH",
"408 90 OFFCURVE",
"462 144 OFFCURVE",
"516 144 CURVE SMOOTH",
"546 144 OFFCURVE",
"552 150 OFFCURVE",
"552 180 CURVE SMOOTH",
"552 492 LINE SMOOTH",
"552 522 OFFCURVE",
"546 528 OFFCURVE",
"516 528 CURVE SMOOTH",
"462 528 OFFCURVE",
"408 582 OFFCURVE",
"408 636 CURVE SMOOTH",
"408 666 OFFCURVE",
"402 672 OFFCURVE",
"372 672 CURVE SMOOTH",
"204 672 LINE SMOOTH",
"174 672 OFFCURVE",
"168 666 OFFCURVE",
"168 636 CURVE SMOOTH",
"168 576 OFFCURVE",
"168 564 OFFCURVE",
"144 564 CURVE SMOOTH",
"120 564 OFFCURVE",
"120 576 OFFCURVE",
"120 636 CURVE SMOOTH",
"120 666 OFFCURVE",
"114 672 OFFCURVE",
"84 672 CURVE SMOOTH",
"60 672 LINE SMOOTH",
"30 672 OFFCURVE",
"24 666 OFFCURVE",
"24 636 CURVE SMOOTH",
"24 -252 LINE SMOOTH",
"24 -282 OFFCURVE",
"30 -288 OFFCURVE",
"66 -288 CURVE SMOOTH"
);
},
{
closed = 1;
nodes = (
"174 96 OFFCURVE",
"120 150 OFFCURVE",
"120 240 CURVE SMOOTH",
"120 432 LINE SMOOTH",
"120 522 OFFCURVE",
"174 576 OFFCURVE",
"264 576 CURVE SMOOTH",
"312 576 LINE SMOOTH",
"402 576 OFFCURVE",
"456 522 OFFCURVE",
"456 432 CURVE SMOOTH",
"456 240 LINE SMOOTH",
"456 150 OFFCURVE",
"402 96 OFFCURVE",
"312 96 CURVE SMOOTH",
"264 96 LINE SMOOTH"
);
}
);
width = 576;
}
);
unicode = 0070;
},
{
glyphname = q;
lastChange = "2020-02-10 16:26:32 +0000";
layers = (
{
layerId = "99C57DA8-5467-4805-A641-AC10645D6708";
paths = (
{
closed = 1;
nodes = (
"510 -288 LINE SMOOTH",
"546 -288 OFFCURVE",
"552 -282 OFFCURVE",
"552 -252 CURVE SMOOTH",
"552 636 LINE SMOOTH",
"552 666 OFFCURVE",
"546 672 OFFCURVE",
"516 672 CURVE SMOOTH",
"492 672 LINE SMOOTH",
"462 672 OFFCURVE",
"456 666 OFFCURVE",
"456 636 CURVE SMOOTH",
"456 576 OFFCURVE",
"456 564 OFFCURVE",
"432 564 CURVE SMOOTH",
"408 564 OFFCURVE",
"408 576 OFFCURVE",
"408 636 CURVE SMOOTH",
"408 666 OFFCURVE",
"402 672 OFFCURVE",
"372 672 CURVE SMOOTH",
"204 672 LINE SMOOTH",
"174 672 OFFCURVE",
"168 666 OFFCURVE",
"168 636 CURVE SMOOTH",
"168 582 OFFCURVE",
"114 528 OFFCURVE",
"60 528 CURVE SMOOTH",
"30 528 OFFCURVE",
"24 522 OFFCURVE",
"24 492 CURVE SMOOTH",
"24 180 LINE SMOOTH",
"24 150 OFFCURVE",
"30 144 OFFCURVE",
"60 144 CURVE SMOOTH",
"114 144 OFFCURVE",
"168 90 OFFCURVE",
"168 36 CURVE SMOOTH",
"168 6 OFFCURVE",
"174 0 OFFCURVE",
"204 0 CURVE SMOOTH",
"372 0 LINE SMOOTH",
"402 0 OFFCURVE",
"408 6 OFFCURVE",
"408 36 CURVE SMOOTH",
"408 96 OFFCURVE",
"408 108 OFFCURVE",
"432 108 CURVE SMOOTH",
"456 108 OFFCURVE",
"456 96 OFFCURVE",
"456 36 CURVE SMOOTH",
"456 -252 LINE SMOOTH",
"456 -282 OFFCURVE",
"462 -288 OFFCURVE",
"492 -288 CURVE SMOOTH"
);
},
{
closed = 1;
nodes = (
"174 96 OFFCURVE",
"120 150 OFFCURVE",
"120 240 CURVE SMOOTH",
"120 432 LINE SMOOTH",
"120 522 OFFCURVE",
"174 576 OFFCURVE",
"264 576 CURVE SMOOTH",
"312 576 LINE SMOOTH",
"402 576 OFFCURVE",
"456 522 OFFCURVE",
"456 432 CURVE SMOOTH",
"456 240 LINE SMOOTH",
"456 150 OFFCURVE",
"402 96 OFFCURVE",
"312 96 CURVE SMOOTH",
"264 96 LINE SMOOTH"
);
}
);
width = 600;
}
);
unicode = 0071;
},
{
glyphname = r;
lastChange = "2022-05-07 20:58:36 +0000";
layers = (
{
background = {
components = (
{
name = o;
}
);
paths = (
{
closed = 1;
nodes = (
"84 0 LINE SMOOTH",
"114 0 OFFCURVE",
"120 6 OFFCURVE",
"120 36 CURVE SMOOTH",
"120 528 LINE",
"60 528 LINE SMOOTH",
"30 528 OFFCURVE",
"24 522 OFFCURVE",
"24 492 CURVE SMOOTH",
"24 36 LINE SMOOTH",
"24 6 OFFCURVE",
"30 0 OFFCURVE",
"60 0 CURVE SMOOTH"
);
},
{
closed = 1;
nodes = (
"120 522 OFFCURVE",
"174 576 OFFCURVE",
"264 576 CURVE",
"168 636 LINE",
"168 582 OFFCURVE",
"114 528 OFFCURVE",
"60 528 CURVE",
"120 432 LINE"
);
},
{
closed = 1;
nodes = (
"372 576 LINE SMOOTH",
"402 576 OFFCURVE",
"408 582 OFFCURVE",
"408 612 CURVE SMOOTH",
"408 636 LINE SMOOTH",
"408 666 OFFCURVE",
"402 672 OFFCURVE",
"372 672 CURVE SMOOTH",
"204 672 LINE SMOOTH",
"174 672 OFFCURVE",
"168 666 OFFCURVE",
"168 636 CURVE SMOOTH",
"168 576 LINE"
);
}
);
};
layerId = "99C57DA8-5467-4805-A641-AC10645D6708";
paths = (
{
closed = 1;
nodes = (
"216 0 LINE SMOOTH",
"234 0 OFFCURVE",
"240 6 OFFCURVE",
"240 24 CURVE SMOOTH",
"240 90 OFFCURVE",
"246 96 OFFCURVE",
"264 96 CURVE SMOOTH",
"282 96 OFFCURVE",
"288 90 OFFCURVE",
"288 24 CURVE SMOOTH",
"288 6 OFFCURVE",
"295 0 OFFCURVE",
"312 0 CURVE SMOOTH",
"528 0 LINE SMOOTH",
"546 0 OFFCURVE",
"552 6 OFFCURVE",
"552 24 CURVE SMOOTH",
"552 72 LINE SMOOTH",
"552 90 OFFCURVE",
"546 96 OFFCURVE",
"528 96 CURVE SMOOTH",
"336 96 LINE SMOOTH",
"318 96 OFFCURVE",
"312 102 OFFCURVE",
"312 120 CURVE SMOOTH",
"312 384 LINE SMOOTH",
"312 570 OFFCURVE",
"318 576 OFFCURVE",
"456 576 CURVE SMOOTH",
"624 576 LINE SMOOTH",
"642 576 OFFCURVE",
"648 582 OFFCURVE",
"648 600 CURVE SMOOTH",
"648 648 LINE SMOOTH",
"648 666 OFFCURVE",
"642 672 OFFCURVE",
"624 672 CURVE SMOOTH",
"384 672 LINE SMOOTH",
"366 672 OFFCURVE",
"360 666 OFFCURVE",
"360 648 CURVE SMOOTH",
"360 582 OFFCURVE",
"354 576 OFFCURVE",
"336 576 CURVE SMOOTH",
"318 576 OFFCURVE",
"312 582 OFFCURVE",
"312 648 CURVE SMOOTH",
"312 666 OFFCURVE",
"306 672 OFFCURVE",
"288 672 CURVE SMOOTH",
"240 672 LINE SMOOTH",
"222 672 OFFCURVE",
"216 666 OFFCURVE",
"216 648 CURVE SMOOTH",
"216 120 LINE SMOOTH",
"216 102 OFFCURVE",
"210 96 OFFCURVE",
"192 96 CURVE SMOOTH",
"143 96 LINE SMOOTH",
"126 96 OFFCURVE",
"120 90 OFFCURVE",
"120 72 CURVE SMOOTH",
"120 24 LINE SMOOTH",
"120 6 OFFCURVE",
"126 0 OFFCURVE",
"142 0 CURVE SMOOTH"
);
}
);
width = 768;
}
);
unicode = 0072;
},
{
glyphname = s;
lastChange = "2020-02-10 16:27:10 +0000";
layers = (
{
layerId = "99C57DA8-5467-4805-A641-AC10645D6708";
paths = (
{
closed = 1;
nodes = (
"372 0 LINE SMOOTH",
"402 0 OFFCURVE",
"408 6 OFFCURVE",
"408 36 CURVE SMOOTH",
"408 90 OFFCURVE",
"462 144 OFFCURVE",
"516 144 CURVE SMOOTH",
"546 144 OFFCURVE",
"552 150 OFFCURVE",
"552 180 CURVE SMOOTH",
"552 204 LINE SMOOTH",
"552 234 OFFCURVE",
"546 240 OFFCURVE",
"516 240 CURVE SMOOTH",
"462 240 OFFCURVE",
"408 294 OFFCURVE",
"408 348 CURVE SMOOTH",
"408 378 OFFCURVE",
"402 384 OFFCURVE",
"372 384 CURVE SMOOTH",
"264 384 LINE SMOOTH",
"168 384 OFFCURVE",
"120 408 OFFCURVE",
"120 480 CURVE SMOOTH",
"120 552 OFFCURVE",
"168 576 OFFCURVE",
"264 576 CURVE SMOOTH",
"540 576 LINE SMOOTH",
"570 576 OFFCURVE",
"576 582 OFFCURVE",
"576 624 CURVE SMOOTH",
"576 666 OFFCURVE",
"570 672 OFFCURVE",
"540 672 CURVE SMOOTH",
"264 672 LINE SMOOTH",
"162 672 OFFCURVE",
"156 666 OFFCURVE",
"156 624 CURVE SMOOTH",
"156 552 OFFCURVE",
"108 528 OFFCURVE",
"60 528 CURVE SMOOTH",
"30 528 OFFCURVE",
"24 522 OFFCURVE",
"24 492 CURVE SMOOTH",
"24 468 LINE SMOOTH",
"24 438 OFFCURVE",
"30 432 OFFCURVE",
"60 432 CURVE SMOOTH",
"114 432 OFFCURVE",
"168 378 OFFCURVE",
"168 324 CURVE SMOOTH",
"168 294 OFFCURVE",
"174 288 OFFCURVE",
"204 288 CURVE SMOOTH",
"312 288 LINE SMOOTH",
"408 288 OFFCURVE",
"456 264 OFFCURVE",
"456 192 CURVE SMOOTH",
"456 120 OFFCURVE",
"408 96 OFFCURVE",
"312 96 CURVE SMOOTH",
"264 96 LINE SMOOTH",
"168 96 OFFCURVE",
"120 120 OFFCURVE",
"120 180 CURVE SMOOTH",
"120 348 LINE SMOOTH",
"120 378 OFFCURVE",
"102 384 OFFCURVE",
"78 384 CURVE SMOOTH",
"30 384 OFFCURVE",
"24 378 OFFCURVE",
"24 348 CURVE SMOOTH",
"24 180 LINE SMOOTH",
"24 150 OFFCURVE",
"30 144 OFFCURVE",
"60 144 CURVE SMOOTH",
"114 144 OFFCURVE",
"168 90 OFFCURVE",
"168 36 CURVE SMOOTH",
"168 6 OFFCURVE",
"180 0 OFFCURVE",
"204 0 CURVE SMOOTH"
);
}
);
width = 600;
}
);
unicode = 0073;
},
{
glyphname = t;
lastChange = "2020-02-10 16:27:10 +0000";
layers = (
{
layerId = "99C57DA8-5467-4805-A641-AC10645D6708";
paths = (
{
closed = 1;
nodes = (
"372 0 LINE SMOOTH",
"402 0 OFFCURVE",
"408 6 OFFCURVE",
"408 36 CURVE SMOOTH",
"408 90 OFFCURVE",
"462 144 OFFCURVE",
"516 144 CURVE SMOOTH",
"546 144 OFFCURVE",
"552 150 OFFCURVE",
"552 180 CURVE SMOOTH",
"552 240 LINE SMOOTH",
"552 282 OFFCURVE",
"546 288 OFFCURVE",
"516 288 CURVE SMOOTH",
"492 288 LINE SMOOTH",
"462 288 OFFCURVE",
"456 282 OFFCURVE",
"456 240 CURVE SMOOTH",
"456 150 OFFCURVE",
"402 96 OFFCURVE",
"312 96 CURVE SMOOTH",
"264 96 LINE SMOOTH",
"174 96 OFFCURVE",
"120 150 OFFCURVE",
"120 240 CURVE SMOOTH",
"120 432 LINE SMOOTH",
"120 522 OFFCURVE",
"174 576 OFFCURVE",
"264 576 CURVE SMOOTH",
"516 576 LINE SMOOTH",
"546 576 OFFCURVE",
"552 582 OFFCURVE",
"552 612 CURVE SMOOTH",
"552 636 LINE SMOOTH",
"552 666 OFFCURVE",
"546 672 OFFCURVE",
"516 672 CURVE SMOOTH",
"204 672 LINE SMOOTH",
"174 672 OFFCURVE",
"168 666 OFFCURVE",
"168 636 CURVE SMOOTH",
"168 576 OFFCURVE",
"168 564 OFFCURVE",
"144 564 CURVE SMOOTH",
"120 564 OFFCURVE",
"120 576 OFFCURVE",
"120 636 CURVE SMOOTH",
"120 666 OFFCURVE",
"114 672 OFFCURVE",
"84 672 CURVE SMOOTH",
"66 672 LINE SMOOTH",
"30 672 OFFCURVE",
"24 666 OFFCURVE",
"24 636 CURVE SMOOTH",
"24 180 LINE SMOOTH",
"24 150 OFFCURVE",
"30 144 OFFCURVE",
"60 144 CURVE SMOOTH",
"114 144 OFFCURVE",
"168 90 OFFCURVE",
"168 36 CURVE SMOOTH",
"168 6 OFFCURVE",
"174 0 OFFCURVE",
"204 0 CURVE SMOOTH"
);
}
);
width = 576;
}
);
unicode = 0074;
},
{
glyphname = u;
lastChange = "2022-05-07 21:02:25 +0000";
layers = (
{
layerId = "99C57DA8-5467-4805-A641-AC10645D6708";
paths = (
{
closed = 1;
nodes = (
"456 0 LINE SMOOTH",
"474 0 OFFCURVE",
"480 6 OFFCURVE",
"480 24 CURVE SMOOTH",
"480 90 OFFCURVE",
"486 96 OFFCURVE",
"504 96 CURVE SMOOTH",
"522 96 OFFCURVE",
"528 90 OFFCURVE",
"528 24 CURVE SMOOTH",
"528 6 OFFCURVE",
"534 0 OFFCURVE",
"552 0 CURVE SMOOTH",
"600 0 LINE SMOOTH",
"618 0 OFFCURVE",
"624 6 OFFCURVE",
"624 24 CURVE SMOOTH",
"624 648 LINE SMOOTH",
"624 666 OFFCURVE",
"618 672 OFFCURVE",
"600 672 CURVE SMOOTH",
"552 672 LINE SMOOTH",
"534 672 OFFCURVE",
"528 666 OFFCURVE",
"528 648 CURVE SMOOTH",
"528 240 LINE SMOOTH",
"528 144 OFFCURVE",
"480 96 OFFCURVE",
"384 96 CURVE SMOOTH",
"288 96 OFFCURVE",
"240 144 OFFCURVE",
"240 240 CURVE SMOOTH",
"240 648 LINE SMOOTH",
"240 667 OFFCURVE",
"234 672 OFFCURVE",
"216 672 CURVE SMOOTH",
"168 672 LINE SMOOTH",
"150 672 OFFCURVE",
"144 666 OFFCURVE",
"144 648 CURVE SMOOTH",
"144 168 LINE SMOOTH",
"144 150 OFFCURVE",
"150 144 OFFCURVE",
"168 144 CURVE SMOOTH",
"240 144 OFFCURVE",
"288 96 OFFCURVE",
"288 24 CURVE SMOOTH",
"288 6 OFFCURVE",
"294 0 OFFCURVE",
"312 0 CURVE SMOOTH"
);
}
);
width = 768;
}
);
unicode = 0075;
},
{
glyphname = v;
lastChange = "2020-02-10 16:27:10 +0000";
layers = (
{
layerId = "99C57DA8-5467-4805-A641-AC10645D6708";
paths = (
{
closed = 1;
nodes = (
"372 0 LINE SMOOTH",
"402 0 OFFCURVE",
"408 6 OFFCURVE",
"408 36 CURVE SMOOTH",
"408 90 OFFCURVE",
"462 144 OFFCURVE",
"516 144 CURVE SMOOTH",
"546 144 OFFCURVE",
"552 150 OFFCURVE",
"552 180 CURVE SMOOTH",
"552 636 LINE SMOOTH",
"552 666 OFFCURVE",
"546 672 OFFCURVE",
"516 672 CURVE SMOOTH",
"498 672 LINE SMOOTH",
"462 672 OFFCURVE",
"456 666 OFFCURVE",
"456 636 CURVE SMOOTH",
"456 240 LINE SMOOTH",
"456 150 OFFCURVE",
"402 96 OFFCURVE",
"312 96 CURVE SMOOTH",
"264 96 LINE SMOOTH",
"174 96 OFFCURVE",
"120 150 OFFCURVE",
"120 240 CURVE SMOOTH",
"120 432 LINE SMOOTH",
"120 522 OFFCURVE",
"174 576 OFFCURVE",
"264 576 CURVE SMOOTH",
"294 576 OFFCURVE",
"300 582 OFFCURVE",
"300 612 CURVE SMOOTH",
"300 636 LINE SMOOTH",
"300 666 OFFCURVE",
"294 672 OFFCURVE",
"264 672 CURVE SMOOTH",
"204 672 LINE SMOOTH",
"174 672 OFFCURVE",
"168 666 OFFCURVE",
"168 636 CURVE SMOOTH",
"168 582 OFFCURVE",
"114 528 OFFCURVE",
"60 528 CURVE SMOOTH",
"30 528 OFFCURVE",
"24 522 OFFCURVE",
"24 492 CURVE SMOOTH",
"24 180 LINE SMOOTH",
"24 150 OFFCURVE",
"30 144 OFFCURVE",
"60 144 CURVE SMOOTH",
"114 144 OFFCURVE",
"168 90 OFFCURVE",
"168 36 CURVE SMOOTH",
"168 6 OFFCURVE",
"174 0 OFFCURVE",
"204 0 CURVE SMOOTH"
);
}
);
width = 576;
}
);
unicode = 0076;
},
{
glyphname = w;
lastChange = "2020-02-10 16:27:10 +0000";
layers = (
{
layerId = "99C57DA8-5467-4805-A641-AC10645D6708";
paths = (
{
closed = 1;
nodes = (
"372 0 LINE SMOOTH",
"402 0 OFFCURVE",
"408 6 OFFCURVE",
"408 36 CURVE SMOOTH",
"408 90 OFFCURVE",
"450 144 OFFCURVE",
"504 144 CURVE SMOOTH",
"558 144 OFFCURVE",
"600 90 OFFCURVE",
"600 36 CURVE SMOOTH",
"600 6 OFFCURVE",
"606 0 OFFCURVE",
"636 0 CURVE SMOOTH",
"804 0 LINE SMOOTH",
"834 0 OFFCURVE",
"840 6 OFFCURVE",
"840 36 CURVE SMOOTH",
"840 90 OFFCURVE",
"894 144 OFFCURVE",
"948 144 CURVE SMOOTH",
"978 144 OFFCURVE",
"984 150 OFFCURVE",
"984 180 CURVE SMOOTH",
"984 636 LINE SMOOTH",
"984 666 OFFCURVE",
"978 672 OFFCURVE",
"948 672 CURVE SMOOTH",
"924 672 LINE SMOOTH",
"894 672 OFFCURVE",
"888 666 OFFCURVE",
"888 636 CURVE SMOOTH",
"888 240 LINE SMOOTH",
"888 150 OFFCURVE",
"834 96 OFFCURVE",
"744 96 CURVE SMOOTH",
"696 96 LINE SMOOTH",
"606 96 OFFCURVE",
"552 150 OFFCURVE",
"552 240 CURVE SMOOTH",
"552 636 LINE SMOOTH",
"552 666 OFFCURVE",
"546 672 OFFCURVE",
"516 672 CURVE SMOOTH",
"492 672 LINE SMOOTH",
"462 672 OFFCURVE",
"456 666 OFFCURVE",
"456 636 CURVE SMOOTH",
"456 240 LINE SMOOTH",
"456 150 OFFCURVE",
"402 96 OFFCURVE",
"312 96 CURVE SMOOTH",
"264 96 LINE SMOOTH",
"174 96 OFFCURVE",
"120 150 OFFCURVE",
"120 240 CURVE SMOOTH",
"120 636 LINE SMOOTH",
"120 666 OFFCURVE",
"114 672 OFFCURVE",
"84 672 CURVE SMOOTH",
"60 672 LINE SMOOTH",
"30 672 OFFCURVE",
"24 666 OFFCURVE",
"24 636 CURVE SMOOTH",
"24 180 LINE SMOOTH",
"24 150 OFFCURVE",
"30 144 OFFCURVE",
"60 144 CURVE SMOOTH",
"114 144 OFFCURVE",
"168 90 OFFCURVE",
"168 36 CURVE SMOOTH",
"168 6 OFFCURVE",
"174 0 OFFCURVE",
"204 0 CURVE SMOOTH"
);
}
);
width = 1008;
}
);
unicode = 0077;
},
{
glyphname = x;
lastChange = "2020-02-10 16:27:10 +0000";
layers = (
{
layerId = "99C57DA8-5467-4805-A641-AC10645D6708";
paths = (
{
closed = 1;
nodes = (
"78 0 LINE SMOOTH",
"114 0 OFFCURVE",
"120 6 OFFCURVE",
"120 36 CURVE SMOOTH",
"120 192 LINE SMOOTH",
"120 282 OFFCURVE",
"174 336 OFFCURVE",
"264 336 CURVE SMOOTH",
"312 336 LINE SMOOTH",
"402 336 OFFCURVE",
"456 282 OFFCURVE",
"456 192 CURVE SMOOTH",
"456 36 LINE SMOOTH",
"456 6 OFFCURVE",
"462 0 OFFCURVE",
"498 0 CURVE SMOOTH",
"516 0 LINE SMOOTH",
"546 0 OFFCURVE",
"552 6 OFFCURVE",
"552 36 CURVE SMOOTH",
"552 252 LINE SMOOTH",
"552 282 OFFCURVE",
"546 288 OFFCURVE",
"516 288 CURVE SMOOTH",
"468 288 OFFCURVE",
"408 294 OFFCURVE",
"408 384 CURVE SMOOTH",
"408 474 OFFCURVE",
"468 480 OFFCURVE",
"516 480 CURVE SMOOTH",
"546 480 OFFCURVE",
"552 486 OFFCURVE",
"552 516 CURVE SMOOTH",
"552 636 LINE SMOOTH",
"552 666 OFFCURVE",
"546 672 OFFCURVE",
"516 672 CURVE SMOOTH",
"498 672 LINE SMOOTH",
"462 672 OFFCURVE",
"456 666 OFFCURVE",
"456 636 CURVE SMOOTH",
"456 576 LINE SMOOTH",
"456 486 OFFCURVE",
"402 432 OFFCURVE",
"312 432 CURVE SMOOTH",
"264 432 LINE SMOOTH",
"174 432 OFFCURVE",
"120 486 OFFCURVE",
"120 576 CURVE SMOOTH",
"120 636 LINE SMOOTH",
"120 666 OFFCURVE",
"114 672 OFFCURVE",
"78 672 CURVE SMOOTH",
"60 672 LINE SMOOTH",
"30 672 OFFCURVE",
"24 666 OFFCURVE",
"24 636 CURVE SMOOTH",
"24 516 LINE SMOOTH",
"24 486 OFFCURVE",
"30 480 OFFCURVE",
"60 480 CURVE SMOOTH",
"108 480 OFFCURVE",
"168 474 OFFCURVE",
"168 384 CURVE SMOOTH",
"168 294 OFFCURVE",
"108 288 OFFCURVE",
"60 288 CURVE SMOOTH",
"30 288 OFFCURVE",
"24 282 OFFCURVE",
"24 252 CURVE SMOOTH",
"24 36 LINE SMOOTH",
"24 6 OFFCURVE",
"30 0 OFFCURVE",
"60 0 CURVE SMOOTH"
);
}
);
width = 576;
}
);
unicode = 0078;
},
{
glyphname = y;
lastChange = "2020-02-10 16:27:10 +0000";
layers = (
{
layerId = "99C57DA8-5467-4805-A641-AC10645D6708";
paths = (
{
closed = 1;
nodes = (
"372 -288 LINE SMOOTH",
"402 -288 OFFCURVE",
"408 -282 OFFCURVE",
"408 -252 CURVE SMOOTH",
"408 -198 OFFCURVE",
"462 -144 OFFCURVE",
"516 -144 CURVE SMOOTH",
"546 -144 OFFCURVE",
"552 -138 OFFCURVE",
"552 -108 CURVE SMOOTH",
"552 -84 LINE SMOOTH",
"552 -54 OFFCURVE",
"546 -48 OFFCURVE",
"516 -48 CURVE SMOOTH",
"462 -48 OFFCURVE",
"408 6 OFFCURVE",
"408 48 CURVE SMOOTH",
"408 90 OFFCURVE",
"462 144 OFFCURVE",
"516 144 CURVE SMOOTH",
"546 144 OFFCURVE",
"552 150 OFFCURVE",
"552 180 CURVE SMOOTH",
"552 636 LINE SMOOTH",
"552 666 OFFCURVE",
"546 672 OFFCURVE",
"516 672 CURVE SMOOTH",
"498 672 LINE SMOOTH",
"462 672 OFFCURVE",
"456 666 OFFCURVE",
"456 636 CURVE SMOOTH",
"456 240 LINE SMOOTH",
"456 150 OFFCURVE",
"402 96 OFFCURVE",
"312 96 CURVE SMOOTH",
"264 96 LINE SMOOTH",
"174 96 OFFCURVE",
"120 150 OFFCURVE",
"120 240 CURVE SMOOTH",
"120 432 LINE SMOOTH",
"120 522 OFFCURVE",
"174 576 OFFCURVE",
"264 576 CURVE SMOOTH",
"294 576 OFFCURVE",
"300 582 OFFCURVE",
"300 612 CURVE SMOOTH",
"300 636 LINE SMOOTH",
"300 666 OFFCURVE",
"294 672 OFFCURVE",
"264 672 CURVE SMOOTH",
"204 672 LINE SMOOTH",
"174 672 OFFCURVE",
"168 666 OFFCURVE",
"168 636 CURVE SMOOTH",
"168 582 OFFCURVE",
"114 528 OFFCURVE",
"60 528 CURVE SMOOTH",
"30 528 OFFCURVE",
"24 522 OFFCURVE",
"24 492 CURVE SMOOTH",
"24 180 LINE SMOOTH",
"24 150 OFFCURVE",
"30 144 OFFCURVE",
"60 144 CURVE SMOOTH",
"114 144 OFFCURVE",
"168 90 OFFCURVE",
"168 36 CURVE SMOOTH",
"168 6 OFFCURVE",
"174 0 OFFCURVE",
"204 0 CURVE SMOOTH",
"312 0 LINE SMOOTH",
"408 0 OFFCURVE",
"456 -24 OFFCURVE",
"456 -96 CURVE SMOOTH",
"456 -168 OFFCURVE",
"408 -192 OFFCURVE",
"312 -192 CURVE SMOOTH",
"264 -192 LINE SMOOTH",
"168 -192 OFFCURVE",
"120 -168 OFFCURVE",
"120 -108 CURVE SMOOTH",
"120 -36 LINE SMOOTH",
"120 -6 OFFCURVE",
"114 0 OFFCURVE",
"72 0 CURVE SMOOTH",
"30 0 OFFCURVE",
"24 -6 OFFCURVE",
"24 -36 CURVE SMOOTH",
"24 -108 LINE SMOOTH",
"24 -138 OFFCURVE",
"30 -144 OFFCURVE",
"60 -144 CURVE SMOOTH",
"114 -144 OFFCURVE",
"168 -198 OFFCURVE",
"168 -252 CURVE SMOOTH",
"168 -282 OFFCURVE",
"180 -288 OFFCURVE",
"204 -288 CURVE SMOOTH"
);
}
);
width = 576;
}
);
unicode = 0079;
},
{
glyphname = z;
lastChange = "2020-02-10 16:27:10 +0000";
layers = (
{
layerId = "99C57DA8-5467-4805-A641-AC10645D6708";
paths = (
{
closed = 1;
nodes = (
"396 0 LINE SMOOTH",
"420 0 OFFCURVE",
"432 6 OFFCURVE",
"432 36 CURVE SMOOTH",
"432 90 OFFCURVE",
"486 144 OFFCURVE",
"540 144 CURVE SMOOTH",
"570 144 OFFCURVE",
"576 150 OFFCURVE",
"576 180 CURVE SMOOTH",
"576 348 LINE SMOOTH",
"576 378 OFFCURVE",
"570 384 OFFCURVE",
"522 384 CURVE SMOOTH",
"498 384 OFFCURVE",
"480 378 OFFCURVE",
"480 348 CURVE SMOOTH",
"480 180 LINE SMOOTH",
"480 120 OFFCURVE",
"432 96 OFFCURVE",
"336 96 CURVE SMOOTH",
"288 96 LINE SMOOTH",
"192 96 OFFCURVE",
"144 120 OFFCURVE",
"144 192 CURVE SMOOTH",
"144 264 OFFCURVE",
"192 288 OFFCURVE",
"288 288 CURVE SMOOTH",
"396 288 LINE SMOOTH",
"426 288 OFFCURVE",
"432 294 OFFCURVE",
"432 324 CURVE SMOOTH",
"432 378 OFFCURVE",
"486 432 OFFCURVE",
"540 432 CURVE SMOOTH",
"570 432 OFFCURVE",
"576 438 OFFCURVE",
"576 468 CURVE SMOOTH",
"576 492 LINE SMOOTH",
"576 522 OFFCURVE",
"570 528 OFFCURVE",
"540 528 CURVE SMOOTH",
"492 528 OFFCURVE",
"444 552 OFFCURVE",
"444 624 CURVE SMOOTH",
"444 666 OFFCURVE",
"438 672 OFFCURVE",
"336 672 CURVE SMOOTH",
"60 672 LINE SMOOTH",
"30 672 OFFCURVE",
"24 666 OFFCURVE",
"24 624 CURVE SMOOTH",
"24 582 OFFCURVE",
"30 576 OFFCURVE",
"60 576 CURVE SMOOTH",
"336 576 LINE SMOOTH",
"432 576 OFFCURVE",
"480 552 OFFCURVE",
"480 480 CURVE SMOOTH",
"480 408 OFFCURVE",
"432 384 OFFCURVE",
"336 384 CURVE SMOOTH",
"228 384 LINE SMOOTH",
"198 384 OFFCURVE",
"192 378 OFFCURVE",
"192 348 CURVE SMOOTH",
"192 294 OFFCURVE",
"138 240 OFFCURVE",
"84 240 CURVE SMOOTH",
"54 240 OFFCURVE",
"48 234 OFFCURVE",
"48 204 CURVE SMOOTH",
"48 180 LINE SMOOTH",
"48 150 OFFCURVE",
"54 144 OFFCURVE",
"84 144 CURVE SMOOTH",
"138 144 OFFCURVE",
"192 90 OFFCURVE",
"192 36 CURVE SMOOTH",
"192 6 OFFCURVE",
"198 0 OFFCURVE",
"228 0 CURVE SMOOTH"
);
}
);
width = 600;
}
);
unicode = 007A;
},
{
glyphname = zero;
lastChange = "2020-02-10 16:27:10 +0000";
layers = (
{
layerId = "99C57DA8-5467-4805-A641-AC10645D6708";
paths = (
{
closed = 1;
nodes = (
"516 144 LINE SMOOTH",
"546 144 OFFCURVE",
"552 150 OFFCURVE",
"552 180 CURVE SMOOTH",
"552 732 LINE SMOOTH",
"552 762 OFFCURVE",
"546 768 OFFCURVE",
"516 768 CURVE SMOOTH",
"456 768 LINE",
"456 144 LINE"
);
},
{
closed = 1;
nodes = (
"264 96 LINE",
"174 96 OFFCURVE",
"120 150 OFFCURVE",
"120 240 CURVE",
"60 144 LINE",
"114 144 OFFCURVE",
"168 90 OFFCURVE",
"168 36 CURVE"
);
},
{
closed = 1;
nodes = (
"372 0 LINE SMOOTH",
"402 0 OFFCURVE",
"408 6 OFFCURVE",
"408 36 CURVE SMOOTH",
"408 96 LINE",
"168 96 LINE",
"168 36 LINE SMOOTH",
"168 6 OFFCURVE",
"174 0 OFFCURVE",
"204 0 CURVE SMOOTH"
);
},
{
closed = 1;
nodes = (
"120 144 LINE",
"120 768 LINE",
"60 768 LINE SMOOTH",
"30 768 OFFCURVE",
"24 762 OFFCURVE",
"24 732 CURVE SMOOTH",
"24 180 LINE SMOOTH",
"24 150 OFFCURVE",
"30 144 OFFCURVE",
"60 144 CURVE SMOOTH"
);
},
{
closed = 1;
nodes = (
"408 90 OFFCURVE",
"462 144 OFFCURVE",
"516 144 CURVE",
"456 240 LINE",
"456 150 OFFCURVE",
"402 96 OFFCURVE",
"312 96 CURVE",
"408 36 LINE"
);
},
{
closed = 1;
nodes = (
"120 762 OFFCURVE",
"174 816 OFFCURVE",
"264 816 CURVE",
"168 876 LINE",
"168 822 OFFCURVE",
"114 768 OFFCURVE",
"60 768 CURVE",
"120 672 LINE"
);
},
{
closed = 1;
nodes = (
"408 816 LINE",
"408 876 LINE SMOOTH",
"408 906 OFFCURVE",
"402 912 OFFCURVE",
"372 912 CURVE SMOOTH",
"204 912 LINE SMOOTH",
"174 912 OFFCURVE",
"168 906 OFFCURVE",
"168 876 CURVE SMOOTH",
"168 816 LINE"
);
},
{
closed = 1;
nodes = (
"516 768 LINE",
"462 768 OFFCURVE",
"408 822 OFFCURVE",
"408 876 CURVE",
"312 816 LINE",
"402 816 OFFCURVE",
"456 762 OFFCURVE",
"456 672 CURVE"
);
}
);
width = 600;
}
);
unicode = 0030;
},
{
glyphname = one;
lastChange = "2020-02-10 16:27:10 +0000";
layers = (
{
layerId = "99C57DA8-5467-4805-A641-AC10645D6708";
paths = (
{
closed = 1;
nodes = (
"168 0 LINE SMOOTH",
"198 0 OFFCURVE",
"204 6 OFFCURVE",
"204 36 CURVE SMOOTH",
"204 102 OFFCURVE",
"210 108 OFFCURVE",
"300 108 CURVE SMOOTH",
"390 108 OFFCURVE",
"396 102 OFFCURVE",
"396 36 CURVE SMOOTH",
"396 6 OFFCURVE",
"402 0 OFFCURVE",
"432 0 CURVE SMOOTH",
"540 0 LINE SMOOTH",
"570 0 OFFCURVE",
"576 6 OFFCURVE",
"576 36 CURVE SMOOTH",
"576 60 LINE SMOOTH",
"576 90 OFFCURVE",
"570 96 OFFCURVE",
"540 96 CURVE SMOOTH",
"492 96 LINE SMOOTH",
"402 96 OFFCURVE",
"348 150 OFFCURVE",
"348 240 CURVE SMOOTH",
"348 876 LINE SMOOTH",
"348 906 OFFCURVE",
"342 912 OFFCURVE",
"312 912 CURVE SMOOTH",
"288 912 LINE SMOOTH",
"258 912 OFFCURVE",
"252 906 OFFCURVE",
"252 876 CURVE SMOOTH",
"252 786 OFFCURVE",
"198 732 OFFCURVE",
"108 732 CURVE SMOOTH",
"60 732 LINE SMOOTH",
"30 732 OFFCURVE",
"24 726 OFFCURVE",
"24 684 CURVE SMOOTH",
"24 642 OFFCURVE",
"30 636 OFFCURVE",
"60 636 CURVE SMOOTH",
"168 636 LINE SMOOTH",
"198 636 OFFCURVE",
"204 642 OFFCURVE",
"204 672 CURVE SMOOTH",
"204 732 OFFCURVE",
"204 744 OFFCURVE",
"228 744 CURVE SMOOTH",
"252 744 OFFCURVE",
"252 732 OFFCURVE",
"252 672 CURVE SMOOTH",
"252 240 LINE SMOOTH",
"252 150 OFFCURVE",
"198 96 OFFCURVE",
"108 96 CURVE SMOOTH",
"60 96 LINE SMOOTH",
"30 96 OFFCURVE",
"24 90 OFFCURVE",
"24 60 CURVE SMOOTH",
"24 36 LINE SMOOTH",
"24 6 OFFCURVE",
"30 0 OFFCURVE",
"60 0 CURVE SMOOTH"
);
}
);
width = 600;
}
);
unicode = 0031;
},
{
glyphname = period;
lastChange = "2020-02-10 16:27:10 +0000";
layers = (
{
layerId = "99C57DA8-5467-4805-A641-AC10645D6708";
paths = (
{
closed = 1;
nodes = (
"84 0 LINE SMOOTH",
"114 0 OFFCURVE",
"120 6 OFFCURVE",
"120 36 CURVE SMOOTH",
"120 156 LINE SMOOTH",
"120 186 OFFCURVE",
"114 192 OFFCURVE",
"84 192 CURVE SMOOTH",
"60 192 LINE SMOOTH",
"30 192 OFFCURVE",
"24 186 OFFCURVE",
"24 156 CURVE SMOOTH",
"24 36 LINE SMOOTH",
"24 6 OFFCURVE",
"30 0 OFFCURVE",
"60 0 CURVE SMOOTH"
);
}
);
width = 144;
}
);
unicode = 002E;
},
{
glyphname = hyphen;
lastChange = "2020-02-10 16:27:10 +0000";
layers = (
{
layerId = "99C57DA8-5467-4805-A641-AC10645D6708";
paths = (
{
closed = 1;
nodes = (
"372 336 LINE SMOOTH",
"402 336 OFFCURVE",
"408 342 OFFCURVE",
"408 372 CURVE SMOOTH",
"408 396 LINE SMOOTH",
"408 426 OFFCURVE",
"402 432 OFFCURVE",
"372 432 CURVE SMOOTH",
"60 432 LINE SMOOTH",
"30 432 OFFCURVE",
"24 426 OFFCURVE",
"24 384 CURVE SMOOTH",
"24 342 OFFCURVE",
"30 336 OFFCURVE",
"60 336 CURVE SMOOTH"
);
}
);
width = 432;
}
);
unicode = 002D;
},
{
glyphname = quotesingle;
lastChange = "2020-02-10 16:27:10 +0000";
layers = (
{
layerId = "99C57DA8-5467-4805-A641-AC10645D6708";
paths = (
{
closed = 1;
nodes = (
"84 576 LINE SMOOTH",
"114 576 OFFCURVE",
"120 582 OFFCURVE",
"120 612 CURVE SMOOTH",
"120 876 LINE SMOOTH",
"120 906 OFFCURVE",
"114 912 OFFCURVE",
"84 912 CURVE SMOOTH",
"60 912 LINE SMOOTH",
"30 912 OFFCURVE",
"24 906 OFFCURVE",
"24 876 CURVE SMOOTH",
"24 612 LINE SMOOTH",
"24 582 OFFCURVE",
"30 576 OFFCURVE",
"60 576 CURVE SMOOTH"
);
}
);
width = 144;
}
);
leftMetricsKey = i;
rightMetricsKey = i;
unicode = 0027;
},
